<?xml version="1.0" encoding="utf-8"?>
<!-- Generator: Adobe Illustrator 25.2.3, SVG Export Plug-In . SVG Version: 6.00 Build 0)  -->
<svg version="1.1" xmlns="http://www.w3.org/2000/svg" xmlns:xlink="http://www.w3.org/1999/xlink" x="0px" y="0px"
	 viewBox="0 0 600 600" style="enable-background:new 0 0 600 600;" xml:space="preserve">
<style type="text/css">
	.st0{fill:#9AB3DA;}
	.st1{fill:#F68D88;}
	.st2{fill:none;stroke:#ECBDBB;stroke-width:1.0433227;stroke-linecap:round;stroke-linejoin:round;stroke-miterlimit:10;}
	.st3{fill:none;stroke:#404B7C;stroke-width:1.096442;stroke-linecap:round;stroke-linejoin:round;stroke-miterlimit:10;}
	.st4{fill:#404B7C;}
	.st5{fill:#FFFFFF;}
	.st6{fill:none;stroke:#9AB3DA;stroke-width:1.096442;stroke-linecap:round;stroke-linejoin:round;stroke-miterlimit:10;}
	.st7{fill:#ECBDBB;}
	.st8{fill:#D16F6A;}
	.st9{fill:#7890B5;}
	.st10{fill:none;stroke:#ECBDBB;stroke-width:1.096442;stroke-linecap:round;stroke-linejoin:round;stroke-miterlimit:10;}
	.st11{fill:none;stroke:#9AB3DA;stroke-width:1.0361407;stroke-linecap:round;stroke-linejoin:round;stroke-miterlimit:10;}
	.st12{fill:none;stroke:#404B7C;stroke-width:1.0361407;stroke-linecap:round;stroke-linejoin:round;stroke-miterlimit:10;}
	.st13{fill:none;stroke:#ECBDBB;stroke-width:0.8894239;stroke-linecap:round;stroke-linejoin:round;stroke-miterlimit:10;}
	.st14{fill:none;stroke:#404B7C;stroke-width:1.0401611;stroke-linecap:round;stroke-linejoin:round;stroke-miterlimit:10;}
	.st15{fill:none;stroke:#F68D88;stroke-width:1.0401611;stroke-linecap:round;stroke-linejoin:round;stroke-miterlimit:10;}
	.st16{fill:none;stroke:#6B81BE;stroke-width:1.0433227;stroke-linecap:round;stroke-linejoin:round;stroke-miterlimit:10;}
	.st17{fill:#E9F3FF;}
	.st18{fill:none;stroke:#9AB3DA;stroke-width:1.0296942;stroke-linecap:round;stroke-linejoin:round;stroke-miterlimit:10;}
</style>
<g id="PLANTS">
	<g>
		<g>
			<path class="st0" d="M511.0682068,570.9345703c0,0,1.4838562-17.9692993,17.8059998-21.7849121
				c16.3221436-3.8155518,0,16.8850708,0,16.8850708s13.5664673-10.7377319,21.8334961-7.5581055
				c8.2670898,3.1796265,1.4838257,9.8065796-11.8706665,12.6404419L511.0682068,570.9345703z"/>
			<path class="st0" d="M543.8359375,549.3616333c-6.0263672,4.8432007-4.0275879,7.7523193,1.0598755,3.4522095
				C549.9832153,548.5137329,547.2962646,546.5806885,543.8359375,549.3616333z"/>
		</g>
		<g>
			<path class="st0" d="M214.4916077,570.9021606c0,0-3.8926544-33.4074707-23.1167755-37.9014282
				s2.1450195,32.1303711,2.1450195,32.1303711s-12.7609253-13.9500122-22.497818-10.2050781
				s-4.9652252,12.8533936,10.7636108,16.19104L214.4916077,570.9021606z"/>
			<path class="st0" d="M175.8980103,545.4937134c7.0977783,5.7042847,4.7436066,9.1305542-1.2483215,4.065918
				C168.6577606,544.4950562,171.8224182,542.2182617,175.8980103,545.4937134z"/>
		</g>
		<g>
			<path class="st1" d="M483.5585327,570.9345703c0,0-4.8786011-29.6219482,15.3556519-59.5132751
				s39.1040649-24.15271,44.8515015-14.6856995s-0.4382324,27.8956299-16.0762939,40.7901001
				C512.0512695,550.420166,490.2339783,563.1471558,483.5585327,570.9345703z"/>
			<path class="st2" d="M532.6907959,501.6185303c0,0-25.1858521,13.5819702-46.3148499,60.5952148"/>
		</g>
		<g>
			<path class="st0" d="M434.9393616,572.0872192c0,0-6.5845337-12.5986938-1.9150696-29.0407715
				c4.6694946-16.4420166,14.0063477-16.65802,17.9942932-13.2523193c3.9879761,3.4057007,3.937561,12.6103516-1.1841431,20.7272339
				C444.712738,558.6381836,436.787262,567.5955811,434.9393616,572.0872192z"/>
		</g>
		<g>
			<path class="st0" d="M89.1263809,571.1170654c0,0-10.2048187-3.1592407-24.1621857-5.5036011
				c-13.9573631-2.3444214-24.6556435-11.1362305-25.6860847-20.7062378
				c-1.0304451-9.5700684,9.9716377-16.1817017,25.895504-6.4500122
				C80.6000824,547.8848877,89.1263809,571.1170654,89.1263809,571.1170654z"/>
		</g>
		<g>
			<path class="st1" d="M107.0294189,570.9345703c0,0,7.9286423-28.9550781-9.0917816-60.7862244
				s-36.3841629-28.083313-43.083744-19.2644043s-2.4612923,27.7902527,11.7530708,42.2391663
				C80.8213196,547.5719604,101.1988297,562.4959717,107.0294189,570.9345703z"/>
			<path class="st2" d="M65.3617554,496.8906555c0,0,23.6390839,16.1242371,39.7711945,65.0776672"/>
		</g>
	</g>
</g>
<g id="MAN_LEFT_ARM_AND_UMBRELLA">
	<g>
		<g>
			<path class="st0" d="M219.2727661,207.8622284c0,0,3.4475555,3.7850342,7.4221039,14.8526611
				s25.1191559,53.9927521,25.1191559,53.9927521l21.0709229-3.4666138c0,0,8.0829468,11.9692078,0.928772,23.3136292
				c0,0-22.953598,5.99823-29.3128662,6.1121216c-6.3592834,0.1138916-10.6517944-7.1992493-15.8981934-16.1022644
				c-5.2463989-8.9029846-16.216156-31.2993469-16.216156-31.2993469s-12.2410889-25.7751617-7.7103577-39.4476013
				C209.2068634,202.1451263,219.2727661,207.8622284,219.2727661,207.8622284z"/>
			<path class="st3" d="M250.4336395,278.6737061c0,0-4.661377,5.9196472-6.1105499,14.8860168"/>
			<circle class="st4" cx="261.8900757" cy="294.2302246" r="2.3244376"/>
			<g>
				<path class="st5" d="M269.2645874,275.0706787l11.7720642-2.8300476c0,0,7.0537109,8.4240723,0.9950562,19.9645386
					l-10.5249634,2.7091064C271.5067444,294.9142761,261.739563,288.8264771,269.2645874,275.0706787z"/>
				<path class="st6" d="M269.2645874,275.0706787l11.7720642-2.8300476c0,0,7.0537109,8.4240723,0.9950562,19.9645386
					l-10.5249634,2.7091064C271.5067444,294.9142761,261.739563,288.8264771,269.2645874,275.0706787z"/>
			</g>
		</g>
		<g>
			<path class="st7" d="M301.0031433,289.4713135c-6.128479,1.7484741-13.1223145-0.7939453-13.1223145-0.7939453
				l-7.841217,1.6057129c-2.4710388-1.7929993-3.7288208-3.9161377-4.2730408-6.0125122
				c-1.2756348-4.8885193,1.3024292-9.6343079,1.3024292-9.6343079l5.9500732-2.0249939l7.3149414-0.9723206l11.9358521-1.5789795
				C302.2698669,270.059967,307.1226807,287.7228394,301.0031433,289.4713135z"/>
			<path class="st4" d="M301.0031433,289.4713135c-6.128479,1.7484741-13.1223145-0.7939453-13.1223145-0.7939453
				l-1.0704651,0.2230225c-1.454071-4.1748657-0.8831482-8.2783508-0.7047119-9.3042297v-0.0089417
				c1.0793457-1.5700378,2.9883728-4.6030273,4.228363-7.9482727l11.9358521-1.5789795
				C302.2698669,270.059967,307.1226807,287.7228394,301.0031433,289.4713135z"/>
			<g>
				<g>
					<path class="st8" d="M423.9029236,157.7221985c0,0-6.6904602,4.8796234-20.3747253,10.901062
						c-13.0687866,5.7537842-32.5247192,12.5602417-58.6265564,17.1544037
						c-14.6744995,2.5958862-31.4542236,4.4870605-50.3749084,5.1025848
						c-18.9207153-0.6155243-35.70047-2.5066986-50.3749542-5.1025848
						c-26.1018372-4.594162-45.557785-11.4006195-58.6264954-17.1544037
						c-13.6843109-6.0214386-20.3748016-10.901062-20.3748016-10.901062s0.0089264-0.0089264,0.0357208-0.0267334
						c1.5253906-1.7306061,57.7879639-64.6123428,129.3405304-64.6123428s127.815094,62.8817368,129.3405457,64.6123428
						C423.8940125,157.7132721,423.9029236,157.7221985,423.9029236,157.7221985z"/>
					<path class="st9" d="M403.5281982,168.6232605c-13.0687866,5.7537842-32.5247192,12.5602417-58.6265564,17.1544037
						c-14.6744995,2.5958862-31.4542236,4.4870605-50.3749084,5.1025848
						c-18.9207153-0.6155243-35.70047-2.5066986-50.3749542-5.1025848
						c-26.1018372-4.594162-45.557785-11.4006195-58.6264954-17.1544037
						c4.6654816-8.7868805,10.4638977-18.6352539,17.4219971-28.5460815
						c20.3926544-29.1081009,50.7496033-58.7960587,91.5794525-64.0592117
						c40.8298035,5.2631531,71.1867981,34.9511108,91.5794067,64.0592117
						C393.0642395,149.9880066,398.8626709,159.83638,403.5281982,168.6232605z"/>
					<path class="st8" d="M344.9016418,185.7776642c-14.6744995,2.5958862-31.4542236,4.4870605-50.3749084,5.1025848
						c-18.9207153-0.6155243-35.70047-2.5066986-50.3749542-5.1025848
						c2.7921753-14.5049896,7.8234253-37.2883301,15.1829681-58.4124222
						c8.54599-24.5496521,20.223114-46.8602142,35.1919861-51.3472748
						c14.9688416,4.4870605,26.6459961,26.7976227,35.1919861,51.3472748
						C337.0782776,148.4893341,342.1094666,171.2726746,344.9016418,185.7776642z"/>
				</g>
				<rect x="292.071228" y="117.7787094" class="st0" width="4.9130702" height="146.1979065"/>
				<rect x="292.071228" y="117.7787094" class="st4" width="2.4555142" height="146.1979065"/>
				<g>
					<path class="st1" d="M288.7293396,259.4333496v26.2510071c-0.000824,2.4573364,0.5013123,4.8282776,1.4101562,6.9745483
						c1.3642578,3.2221985,3.6279602,5.9455872,6.4838867,7.8760071c2.8520203,1.9306946,6.3296509,3.0649414,10.0195618,3.0626221
						c4.9281006,0.0028992,9.4430237-2.0140381,12.6662292-5.2466431c3.2325439-3.2233582,5.2494202-7.7383118,5.2464905-12.6665344
						l0,0c0-3.1037598-2.5160828-5.6198425-5.619812-5.6198425h-0.3571777c-3.1037292,0-5.619812,2.5160828-5.619812,5.619812
						v0.0000305c-0.0011292,1.1820984-0.3123169,2.2366638-0.854187,3.1834717
						c-0.3752136,0.6556091-0.8763123,1.2396545-1.4654236,1.7124939c-1.1130371,0.8933411-2.4580994,1.4176331-3.9963074,1.4203796
						c-1.1824951-0.0011292-2.2374878-0.312561-3.1845398-0.8547668c-0.6556702-0.3753967-1.2396851-0.8766785-1.7124939-1.4659424
						c-0.8929749-1.1129456-1.4169922-2.4577026-1.4197388-3.995636v-26.2510071h-11.5968018H288.7293396z"/>
				</g>
				<g>
					<path class="st1" d="M423.9029236,157.7221985c0,0-16.7529297-12.2213135-51.4899597-21.8645325
						c-13.1133728-3.6485138-28.7958984-6.9224396-47.1010437-9.0366287
						c-9.545105-1.1061478-19.8038635-1.8911743-30.7851868-2.247963
						c-10.9813232,0.3567886-21.2400818,1.1418152-30.7851868,2.247963
						c-18.305191,2.1141891-33.9876556,5.3881149-47.1010284,9.0366287
						c-34.73703,9.643219-51.490036,21.8645325-51.490036,21.8645325s41.5345612-74.6301651,129.3762512-81.7042313
						C382.3683777,83.0920334,423.9029236,157.7221985,423.9029236,157.7221985z"/>
					<path class="st0" d="M372.4129639,135.857666c-13.1133728-3.6485138-28.7958984-6.9224396-47.1010437-9.0366287
						c-9.545105-1.1061478-19.8038635-1.8911743-30.7851868-2.247963
						c-10.9813232,0.3567886-21.2400818,1.1418152-30.7851868,2.247963
						c-18.305191,2.1141891-33.9876556,5.3881149-47.1010284,9.0366287
						c17.8858948-27.698616,43.7201385-54.835228,77.8862152-59.8396988
						C328.6928406,81.022438,354.5270691,108.15905,372.4129639,135.857666z"/>
					<path class="st1" d="M325.3119202,126.8210373c-9.545105-1.1061478-19.8038635-1.8911743-30.7851868-2.247963
						c-10.9813232,0.3567886-21.2400818,1.1418152-30.7851868,2.247963
						c7.5111694-24.3355103,17.7253418-46.3427429,30.7851868-50.8030701
						C307.5865784,80.4782944,317.8006897,102.485527,325.3119202,126.8210373z"/>
				</g>
			</g>
			<g>
				<path class="st7" d="M296.9283142,266.5184021c-4.5647888,1.3105469-5.773407,6.9591064-2.4464111,7.2712097
					c0,0-3.3302917,2.4336243,0.217041,5.8175354c0,0-4.065979,3.7121887,0.4608459,5.7640991
					c0,0-3.4465332,2.4829407,0.4769897,5.1092224c3.9235229,2.6263123,14.2910767,0.3442993,9.7566528-4.3526306
					c0,0,4.096405-2.5595703,0.6475525-6.9032288c0,0,4.534668-3.7981567-0.7738647-6.8387451
					C305.2671204,272.3858643,308.6765442,263.1454468,296.9283142,266.5184021z"/>
				<g>
					<path class="st3" d="M296.3135986,273.0715332c0,0,2.7075806-1.3224487,7.3861389-0.7818604"/>
					<path class="st3" d="M296.1427002,279.6662903c0,0,3.3821106,0.2664185,8.0638733-0.3114624"/>
					<path class="st3" d="M296.9378967,285.283783c0,0,3.4813232,0.835083,6.6539307,0.624176"/>
				</g>
			</g>
			<g>
				<path class="st7" d="M281.50354,272.8256836c0.3246155-1.2984924,8.446991-8.7643127,11.1083679-9.5313416
					c2.661377-0.7670593,4.7442017,3.7457275,4.8599243,7.911377c0.1157227,4.1656189-3.9342346,5.2070312-4.8599243,0.5785522
					c0,0-0.6608887,8.3556519-5.3286438,8.8825989C282.6154785,281.1938171,280.2307129,277.9170227,281.50354,272.8256836z"/>
				<path class="st3" d="M297.0379028,268.1043091c0.2531128,0.9968872,0.4049988,2.0599976,0.4339294,3.1014099
					c0.1157227,4.1656189-3.9342346,5.2070312-4.8599243,0.5785522c0,0-0.6608887,8.3556519-5.3286438,8.8825989
					c-0.3928223,0.044342-0.7694397,0.0617676-1.1290894,0.0534058"/>
			</g>
		</g>
	</g>
</g>
<g id="MAN_LEFT_LEG">
	<g>
		<g>
			<g>
				<path class="st7" d="M246.3561401,520.9502563c0,0-0.4362488,10.8150635-0.5240173,13.8422852
					c-0.1175385,5.0151978-0.287674,11.7113037-0.262207,11.8849487c0.0397949,0.2711792-5.0714722,2.5946655-5.0714722,2.5946655
					l-5.9161835-1.3483887l-0.6609192-8.7352295l-1.2738037-16.189209L246.3561401,520.9502563z"/>
				<path class="st4" d="M246.3561401,520.9502563c0,0-0.4362488,10.8150635-0.5240173,13.8422852
					c-2.7657013,1.0151978-7.7671356,2.8793945-11.9107819,4.3959961l-1.2738037-16.189209L246.3561401,520.9502563z"/>
			</g>
			<g>
				<path class="st4" d="M232.6009369,543.7024536c0,0,8.0405731,2.3756714,14.6192322,0.3654785
					c0,0,11.5126495,8.3146973,18.8222504,10.9644165c7.3096313,2.6497803,14.2537537,4.5685425,14.2537537,16.0811768H227.758316
					C227.758316,571.1135254,226.7532501,552.9673462,232.6009369,543.7024536z"/>
				<path class="st6" d="M255.3294983,556.2566528c0,0-6.4415894-3.7689819-12.3349762-8.9771118"/>
				<path class="st1" d="M254.8495789,563.9866333c0,0,2.6040344-8.3603516,8.3603821-11.2385254
					c0,0,9.730896,3.2893677,13.8425598,5.6192627c4.1116638,2.3299561,4.3857727,7.401001,4.3857727,12.7461548h-54.6850433
					v-7.1268921H254.8495789z"/>
			</g>
		</g>
		<g>
			<path class="st1" d="M247.4702911,532.1934204l-20.9189453,1.4451294c0,0-8.6530457-86.4768372-8.9206543-87.2975769
				c-0.2051544-0.6065979-20.6513214-45.2901001-31.1330872-68.1894531
				c-0.6155396-1.3381042-1.195343-2.6048279-1.7306213-3.7823486c-1.7662659-3.8448181-3.1043701-6.7618408-3.791275-8.2694092
				c-0.3478546-0.7583008-0.5352173-1.1686096-0.5352173-1.1686096s-0.6601105-38.1269226-1.373764-48.2429199
				c-1.0794067-15.2810669,24.7904816-40.5265198,39.7236481-0.9901733c0.258728,0.6779175,0.5084839,1.3648376,0.7582855,2.0784912
				c14.7993317,42.4890442,29.0813141,111.0978394,30.6780853,122.9979553
				C251.3596802,449.2848511,247.4702911,532.1934204,247.4702911,532.1934204z"/>
			<path class="st4" d="M189.2184448,356.171051l-2.7208405,21.9804688
				c-0.6155396-1.3381042-1.195343-2.6048279-1.7306213-3.7823486c-1.7662659-3.8448181-3.1043701-6.7618408-3.791275-8.2694092
				l1.2935028-1.1686096C182.2692108,364.9311523,187.987381,359.6500854,189.2184448,356.171051z"/>
			
				<ellipse transform="matrix(0.99992 -0.012652 0.012652 0.99992 -5.6088824 3.0578101)" class="st10" cx="238.8716736" cy="444.8307495" rx="8.9771194" ry="13.8660431"/>
			<polyline class="st10" points="193.3236389,373.8818359 223.6585388,442.7749329 230.2483978,527.5664673 			"/>
		</g>
	</g>
</g>
<g id="MAN_RIGHT_LEG">
	<g>
		<g>
			<g>
				<path class="st7" d="M121.6769562,528.4671021c0,0-0.3575974,2.388916-0.8018799,5.3846436
					c-0.7634735,4.9580688-1.7698288,11.5803223-1.8253403,11.7467651
					c-0.0867157,0.2600098,4.5381012,3.4434814,4.5381012,3.4434814l6.0609665-0.2903442l2.1820221-8.4840698l2.0155487-7.8460693
					L121.6769562,528.4671021z"/>
				<g>
					<path class="st4" d="M145.2174225,571.1170654H113.375206c0,0-0.1669083-2.9735107,0.0313263-7.1259155
						c0.2712784-6.1034546,1.3249817-14.7734985,4.8097-20.2926636c0,0,8.0335999,2.3788452,14.6169586,0.3652344
						c0,0,4.8097076,9.1916504,9.4316254,15.7854004c0.0313263,0.0521851,0.0730286,0.1043701,0.1043701,0.1564941
						C144.664444,563.2608032,145.2278748,567.5801392,145.2174225,571.1170654z"/>
					<path class="st6" d="M132.4810181,560.4226074c0,0-4.4107208-6.0203857-7.7460022-13.1430664"/>
					<path class="st1" d="M149.7976379,571.1170654h-37.4344254v-7.1259155h13.062355
						c0,0-0.0729752-11.2470703,11.3618011-11.2470703C148.2221985,552.7440796,149.7976379,562.4261475,149.7976379,571.1170654z"
						/>
				</g>
				<path class="st4" d="M121.6769562,528.4671021c0,0-0.3575974,2.388916-0.8018799,5.3846436
					c2.5449142,1.484314,7.1421204,4.1963501,10.9557495,6.4158325l2.0155487-7.8460693L121.6769562,528.4671021z"/>
			</g>
		</g>
		<g>
			<path class="st1" d="M133.714035,325.1528625c0,0-3.5945282,105.3352661-3.4401398,120.2402649
				c0.1418304,14.9138184-14.1884537,85.1036377-14.1884537,85.1036377s8.9173203,2.5271606,21.0277328,2.8696899
				c0.2041931-1.0772705,25.4011383-74.6085815,26.3380585-81.4949951
				c0.5304871-3.9170532,6.2459412-29.7729797,11.1345215-51.6789551
				c2.4776764-11.069519,6.7042542-29.5002441,7.6820984-35.2649536
				c-0.2806244-15.7859802-2.393158-33.7685852-3.5468445-60.6828003
				C165.2787628,285.6489258,137.9984589,294.7179565,133.714035,325.1528625z"/>
			<path class="st10" d="M190.2281647,312.7897644c0,0,0.1525116,40.4117737-1.0088501,43.3843994
				c-1.1613617,2.9725952-6.9514618,8.7533875-6.9514618,8.7533875l-3.5468445-49.4830933"/>
			
				<ellipse transform="matrix(0.2388691 -0.9710518 0.9710518 0.2388691 -324.9554443 493.2582397)" class="st10" cx="152.1720428" cy="453.9184265" rx="13.8660431" ry="8.9771194"/>
			<path class="st10" d="M140.8618317,332.7294312c0,0-2.190033,113.3665161-2.8247833,121.0153198
				s-16.7380371,71.269043-16.7380371,71.269043"/>
		</g>
	</g>
</g>
<g id="MAN_RIGHT_ARM">
	<g>
		<g>
			<g>
				<path class="st7" d="M105.6979065,337.0118103c0,0,5.6430206,17.0232849,5.8154449,20.9123535
					c0.1266708,2.8570251-2.3800354,9.2328186-3.7193756,12.4155579c-0.4477768,1.0640564-1.6451492,1.5870056-2.7325897,1.1994324
					l-0.0000076-0.0000305c-1.066124-0.3799744-1.6625595-1.5141602-1.3714066-2.6078796l1.4505005-5.448822
					c0,0-2.5670395,5.4530945-4.8058853,8.466095c-0.629425,0.8470764-1.7325516,1.1869812-2.7206573,0.8163757l0,0
					c-1.3367996-0.5014038-1.918457-2.0669861-1.2326508-3.3192444c1.2106171-2.2105408,2.9810638-5.584137,4.1207428-8.3852539
					c0,0-4.0310898,5.4398499-7.4042053,8.7370605c-0.9125061,0.8919678-2.3666382,0.9101868-3.328743,0.0719299l0,0
					c-0.9933243-0.8654175-1.1386337-2.3554382-0.3222961-3.3894958c1.5424271-1.9537964,3.9076691-5.134613,5.184494-7.7748108
					c0,0-2.6009598,2.4446411-5.1936951,4.3391113c-0.9528046,0.6961975-2.2864761,0.5073853-3.0190506-0.4177551h-0.0000076
					c-0.6815948-0.8607483-0.6242371-2.0845337,0.1305389-2.881897c1.5441437-1.6312561,3.8465118-4.5303345,3.8448029-7.3129272
					c-0.0025787-4.1861877-0.157341-5.4384155-0.2026672-8.477356c-0.0379333-2.5435791,2.8078079-7.5910645,2.8078079-7.5910645
					l0.9129715-10.9937439l13.2049637,1.0895386L105.6979065,337.0118103z"/>
				<path class="st3" d="M94.8069305,353.3564453c0,0,2.1831665-0.267334,2.4504929,1.1138611
					c0.2673264,1.3811646,3.3861389-1.2356567,4.5891113,0.7247314s3.3861389-0.8138428,4.811882,1.0574341
					c1.22435,1.6069641,2.0495071-1.0574341,3.9207916,0.8019714"/>
				<line class="st3" x1="106.9257431" y1="358.6584167" x2="105.811882" y2="362.0445557"/>
				<line class="st3" x1="102.1584167" y1="357.5891113" x2="101.178215" y2="359.8613892"/>
			</g>
			<polygon class="st5" points="91.4243927,321.2617798 90.7158432,330.4850769 110.9827499,333.2744751 112.1290283,324.2173767 
							"/>
			<polyline class="st6" points="105.8343964,332.5658875 110.9827499,333.2744751 112.1290283,324.2173767 91.4243927,321.2617798 
				90.7158432,330.4850769 105.8343964,332.5658875 			"/>
			<path class="st0" d="M155.994339,236.4441071l-37.0174484,47.5639801l-5.9012527,43.7314453l-23.8604355-4.4588623
				c0,0,4.9742432-50.4128723,6.2902222-53.2085266s43.9082413-66.4080811,43.9082413-66.4080811
				C152.76828,190.3600006,178.1558838,218.5834961,155.994339,236.4441071z"/>
			<circle class="st4" cx="94.690834" cy="317.7796326" r="2.3299394"/>
			<line class="st3" x1="117.6735458" y1="282.767395" x2="106.3026199" y2="277.5267944"/>
		</g>
	</g>
</g>
<g id="MAN_BODY">
	<g>
		<g>
			<g>
				<path class="st0" d="M139.2324982,282.1461792c0.5482178-5.4822083,4.1170044-81.1359711,4.1170044-81.1359711
					s27.9539185-9.3204956,43.8523407-7.1276245c15.898407,2.1928864,32.0709229,13.9796448,32.0709229,13.9796448
					c5.4822083,30.1521606-5.2080994,59.7560883-3.2893219,75.1062775
					c1.9187622,15.3501892,16.1725159,49.8881226,16.1725159,49.8881226
					c-14.1343536,10.5446777-21.9842529,13.9200134-35.6303558,14.8963928
					c-3.1311188-5.278717-14.2577515-23.4187317-14.2577515-23.4187317l-16.4630585,23.4187317
					c-20.7985382-5.7825623-42.4707031-18.7339478-42.4707031-18.7339478S138.6842804,287.6283875,139.2324982,282.1461792z"/>
				<path class="st3" d="M219.6578674,210.1468964c2.6011963,16.7272339,0.4374847,33.1784973-1.5593109,47.0052643"/>
				<path class="st3" d="M139.7324524,275.3793945c1.0296478-15.0942993,2.4509735-54.1974487,3.3143768-68.1564026"/>
			</g>
			<polygon class="st4" points="216.688858,304.7787781 218.7903748,312.1797485 201.0900116,318.0297546 198.8971252,310.5374146 
							"/>
			<polygon class="st4" points="147.1380157,304.244751 144.5918884,311.5047913 165.144989,318.2448425 167.7878571,310.8991394 
							"/>
			<path class="st3" d="M183.4555664,321.5405579l3.831131-7.1542053c0,0,0.2476807-17.164093-0.0264282-52.2502441"/>
		</g>
		<g>
			<path class="st4" d="M185.8312836,190.4562073c0,0,6.9898224,1.3705597,19.0506744,7.9492035
				c0,0,5.9847565,7.7207794,9.2740784,19.233429l-11.7740326,2.3547974l4.2816772,12.4471588l-18.8398895,24.7113647
				l-30.8654785-26.7214966l7.6750946-14.0710144l-13.3400421-2.5583649c0,0,6.3959045-13.5684662,9.8679657-17.0405273
				C164.6334076,193.288681,180.3490753,189.7252502,185.8312836,190.4562073z"/>
			<g>
				<path class="st5" d="M186.1053925,194.0881805c4.0037842,0.8007812,12.14505,4.4138031,16.247467,6.3054047
					c0.402832,7.8988342-3.3044434,35.9908905-15.2424316,51.0936127c0,0-17.9444733-34.6469879-21.9582977-53.8122253
					C170.42836,196.2103882,181.9361877,193.2543335,186.1053925,194.0881805z"/>
				<g>
					<path class="st4" d="M178.7210083,234.151947c0.8493805-5.6896667,1.4981537-12.6110382,1.993454-29.1222382l4.088913-0.867981
						l2.8554077,1.781723c0,0,5.8281555,12.7357941,8.1936035,32.3435669
						c-3.2738037,7.1620026-4.6060791,8.7692871-8.5656891,13.7784271
						C187.2866974,252.0654449,181.2948151,244.954361,178.7210083,234.151947z"/>
					<path class="st6" d="M188.6628723,213.0703278c0,0-4.180191-0.4111633-6.6471863-0.2741089"/>
				</g>
			</g>
			<g>
				<path class="st5" d="M183.8643341,205.7607117c0,0,5.3908386,2.5583649,10.9644165,8.0405731
					c0,0,1.2791901-19.5532074-9.045639-21.4719849s-13.1573029,18.7308807-13.1573029,18.7308807
					S175.2755432,208.3190765,183.8643341,205.7607117z"/>
				<path class="st6" d="M178.4927979,195.4007568c-4.4569244,5.3795319-5.8669891,15.6594238-5.8669891,15.6594238
					s2.6497345-2.7411041,11.2385254-5.299469c0,0,5.3908386,2.5583649,10.9644165,8.0405731
					c0,0,0.658371-10.0635071-2.7817841-16.4597321"/>
			</g>
		</g>
	</g>
</g>
<g id="MAN_NECK">
	<g>
		<path class="st7" d="M182.015686,198.1389618c0,0,2.2707672,2.7832031,6.5633698,2.4502258l4.0648499-9.1347504
			l4.467804-10.022934l-7.0746002-10.7400818l-0.0630188-0.0979004l-0.1871796,0.6535187l-1.5503387,5.3726959
			L182.015686,198.1389618z"/>
		<path class="st4" d="M188.2365723,176.6197357c-0.7665253,4.3083191-0.7797241,10.7257538,4.4073334,14.8347015
			l4.467804-10.022934l-7.0746002-10.7400818c-0.105484,0.2093201-0.1809235,0.3930054-0.2501984,0.5556183
			c-0.2142639,0.5088959-0.3048401,0.8250885-0.3108826,0.8461914
			C189.4760284,172.0932312,188.7157898,173.9512482,188.2365723,176.6197357z"/>
	</g>
</g>
<g id="MAN_HEAD">
	<g>
		<g>
			<path class="st7" d="M208.8028259,173.7014923c0,0,2.6962585-3.0540009,5.1758728-1.0550537
				s-0.585434,8.8680267-6.584259,8.9072723L208.8028259,173.7014923z"/>
			<path class="st3" d="M212.6396637,174.6260986c0,0-2.0236816,0.5745087-3.8291168,3.6819"/>
		</g>
		<path class="st7" d="M201.3472137,157.7238922c8.7762146-0.0772552,10.0348053,12.7285614,8.3772278,21.9610596
			c-1.6575928,9.2324982-9.8275909,14.7045593-17.1914215,7.0463257S183.4021912,157.8818359,201.3472137,157.7238922z"/>
		<path class="st4" d="M185.8427277,184.900528l2.791275-4.8276672l0.2523651-5.9710999l0.5690002-3.3221436
			c0,0,6.9303436,0.6783905,4.7305756-7.4954376c0,0,8.2295685,10.1580505,16.8410339,9.7920837
			c8.6128082-0.35495,15.2250519-10.1703796,13.8092804-13.1461945c-1.3444977-2.8505554-5.4593048,0.1125488-5.7870026,0.3538666
			c0.4411926-0.5903473,9.0133057-11.908844,3.873642-18.8277588c-5.272522-7.092453-20.701828,4.7784729-29.6628723,12.0231934
			c-1.3719635,1.106842-2.7091827,2.1313019-3.9872131,3.0926361c0.8303986-1.967453,2.0951996-5.127533,3.1304321-8.4269104
			c1.6983948-5.4472961-6.6361084-4.0095978-6.4272766,10.7756348c0,0-5.667984-8.0379486-9.1894684-6.0637054
			c-2.9693909,1.6494446,2.0154572,6.2194519,6.7035217,8.0111694c-4.1138458,3.152832-6.9108124,5.8422852-7.2341003,9.2999115
			C175.7160187,175.9532928,185.8427277,184.900528,185.8427277,184.900528z"/>
		<g>
			<path class="st7" d="M188.8863678,174.1017609c0,0-1.2584076-3.8012238-5.5398865-3.0422668
				c-4.2814636,0.7589569-2.2727966,10.2854614,6.3987427,8.8938293L188.8863678,174.1017609z"/>
			<path class="st3" d="M188.1233826,177.36026c0,0-1.2012939-3.7151489-4.7871246-4.1121216"/>
			<path class="st3" d="M184.7724152,176.9809723c0,0,0.0853729-1.4430237,1.3005524-2.5717163"/>
		</g>
	</g>
</g>
<g id="MAN_FACE">
	<g>
		<path class="st4" d="M194.5307159,171.1159363c0,0,1.8596344-3.358902,4.4071808-1.9263916
			c0,0,0.1067657-0.7776031,0.7900543-0.7633209c0.6832733,0.0142975,0.6525879,2.1526184,0.6525879,2.1526184
			S197.2605743,170.1758118,194.5307159,171.1159363z"/>
		<path class="st4" d="M210.1032562,171.4933929c0,0-1.0086823-3.363205-2.7553253-1.9530792
			c0,0-0.198822-0.6178589-0.6429291-0.5882263c-0.7681274,0.0512543-0.4576721,2.0460358-0.4576721,2.0460358
			S208.3812561,170.5360565,210.1032562,171.4933929z"/>
		<g>
			
				<ellipse transform="matrix(0.0774935 -0.9969928 0.9969928 0.0774935 7.4005384 359.9753418)" class="st4" cx="198.2207794" cy="175.9886322" rx="1.7821702" ry="1.4414612"/>
			<circle class="st5" cx="198.5865936" cy="175.3828888" r="0.3832976"/>
		</g>
		<g>
			
				<ellipse transform="matrix(0.0774935 -0.9969928 0.9969928 0.0774935 14.5544024 369.0229187)" class="st4" cx="206.6867676" cy="176.6466675" rx="1.7821702" ry="1.4414612"/>
			<circle class="st5" cx="207.0525818" cy="176.0409241" r="0.3832976"/>
		</g>
		<path class="st3" d="M203.3982697,180.09021c0,0,1.6642761,0.7611389,1.1942139,1.9669342
			c-0.5446777,1.3972015-2.5544434,0.7149658-2.5544434,0.7149658"/>
		<circle class="st3" cx="198.1084595" cy="176.0344238" r="3.9956391"/>
		<circle class="st3" cx="207.9686127" cy="176.541214" r="3.9956391"/>
		<path class="st3" d="M202.7556915,185.6314087c0,0-3.3122101,0.8859406-6.1531525-2.5514374"/>
	</g>
</g>
<g id="WOMAN_RIGHT_UPPER_ARM">
	<g>
		<path class="st1" d="M347.5847168,216.4940033c0,0-6.3796692,0.5708618-6.8539124,14.3970337
			c-0.4742126,13.8261719-0.9824524,46.8361053-0.9824524,46.8361053s1.3864441,8.901825,11.5990601,8.164856
			c10.2126465-0.736969,10.8048401-10.9943542,10.8048401-10.9943542s-5.5086975-42.6234589-6.7818604-48.5905762
			C354.0971985,220.3399506,347.5847168,216.4940033,347.5847168,216.4940033z"/>
		<path class="st4" d="M339.9589844,271.4484558c-7.8815918,8.1358948,3.7626953,31.0667725,17.3571167,22.6395264
			c13.5944214-8.4272156,6.9223022-19.0216675,1.3754272-23.5198364
			C353.1446228,266.0699463,345.5627136,265.6639709,339.9589844,271.4484558z"/>
	</g>
</g>
<g id="WOMAN_BACK_SHIRT">
	<path class="st0" d="M479.9064941,354.6761475c0,0-10.4374695,24.5205383-51.1390076,34.7628174
		c-40.7015381,10.2422485-73.6152039-13.2616272-73.6152039-13.2616272l9.7364807-42.5076294l84.3937683-16.1416016
		L479.9064941,354.6761475z"/>
</g>
<g id="WOMAN_RIGHT_LEG">
	<g>
		<g>
			<path class="st7" d="M453.9105835,487.282196l12.7424316,8.9078064c0,0,3.9499817-1.3496399,4.6926575-6.1276245
				l-12.5470581-11.0670166L453.9105835,487.282196z"/>
			<g>
				<path class="st4" d="M485.6650391,493.7374268c3.4816589,2.1427307,7.1870117,5.6177979,11.0523376,10.0438232
					l-2.0530701,2.6808167c0,0-8.1576233-4.303009-12.430481-5.3879395S481.8338928,492.8692932,485.6650391,493.7374268z"/>
				<path class="st1" d="M470.2112732,487.7354431c0,0-0.7736816,4.025116-6.1004333,7.9658813
					c0,0,7.6052246,18.9480896,7.9625244,23.717804c0.3572998,4.7697754-1.6365967,13.0856323-2.1300964,16.1101685
					s12.901886-12.7215576,15.1454468-17.0792236c2.2435608-4.3577271-0.1183167-11.2701721-0.2589111-16.4815369
					c-0.140564-5.2113953,0.8352661-8.2310791,0.8352661-8.2310791S477.8964844,489.1248169,470.2112732,487.7354431z"/>
			</g>
		</g>
		<g>
			<g>
				<path class="st4" d="M462.2260742,477.6079102c-0.8920593,5.7002563-9.0990601,13.0776672-9.0990601,13.0776672
					l-56.1478577-34.3557129c-4.531189-2.772522-7.7628784-7.2446899-8.9729309-12.4171753l-2.1052551-8.999054
					c0,0-14.710144-56.4855957-17.2792969-69.8754578c-2.5602112-13.3809509-0.4638977-46.8066711-0.4638977-46.8066711
					s4.5227966-13.5058899,19.6343689-13.9519348c15.1116028-0.454895,22.9617615,20.1428528,26.092926,58.8406677
					c2.2747498,28.0375977,1.9447021,59.152832,1.5967712,74.1663208
					c6.0482178,3.9161682,12.3105469,8.4567566,17.9751282,14.1035461
					C442.9753113,460.8638306,462.2260742,477.6079102,462.2260742,477.6079102z"/>
			</g>
			<polyline class="st11" points="401.2158813,365.6960144 407.3285217,443.1617432 453.9105835,478.9953613 			"/>
		</g>
	</g>
</g>
<g id="WOMAN_LEFT_LEG">
	<g>
		<path class="st4" d="M386.7868347,527.2549438c0,0,2.8442993,6.2244873,17.3615112,5.2626343
			C404.1483459,532.5175781,399.3435669,521.2053833,386.7868347,527.2549438z"/>
		<g>
			<path class="st7" d="M393.8671875,523.515686l-4.9840698,16.034729c0,0,2.2595825,3.5097046,7.0759888,3.0820923
				l7.1269226-16.3641357L393.8671875,523.515686z"/>
			<g>
				<path class="st4" d="M401.7476501,556.2355347c0.4157104,4.0669556-0.0903625,9.1216431-1.2541504,14.8815308
					l-3.3766785-0.000061c0,0-1.5436096-9.0928345-3.2801819-13.1448364S400.1075439,552.6660156,401.7476501,556.2355347z"/>
				<path class="st1" d="M397.1168213,540.3170776c0,0-3.6660767,1.8330078-10.0335083,0
					c0,0-10.4193726,17.5585938-13.9889832,20.7423096s-11.3841858,6.6568604-14.0855103,8.1040039
					c-2.7013245,1.4470825,17.944519,2.5083618,22.7683411,1.6400757
					c4.8237915-0.8682861,8.8757629-6.9462891,12.9277649-10.2264404c4.0519714-3.2802124,7.0427246-4.3414307,7.0427246-4.3414307
					S400.6864319,547.2633057,397.1168213,540.3170776z"/>
			</g>
		</g>
		<g>
			<path class="st4" d="M403.1611328,333.8875427l-1.9452515,31.8084717c0,0-5.1367798,70.3104553-5.1363831,85.2293091
				c0.0003662,14.9188843-9.2926636,76.3296204-9.2926636,76.3296204s3.4447021-1.8664551,9.864502,0.2296143
				c6.4197693,2.0960693,7.4970093,5.03302,7.4970093,5.03302s15.6888733-43.388855,17.9963074-55.1185303
				c2.3074341-11.7296448,3.474884-30.2252502,5.8048706-38.2939453
				c2.3299866-8.0687256,17.1635437-51.6353455,21.1665039-70.4230042s4.6174927-49.5773621-15.0899048-55.8921509
				S406.4049683,320.7098999,403.1611328,333.8875427z"/>
			<path class="st11" d="M403.1611328,333.8875427l-1.9452515,31.8084717c0,0-4.4182739,60.4758301-5.0592346,81.1542053"/>
			<path class="st11" d="M423.3259888,470.0881653c1.1644592-7.7008362,1.841095-15.1008301,2.9159546-22.3101807"/>
			<path class="st11" d="M444.9978943,348.9681702c0,0-13.6278687,56.0373535-17.0414734,66.4924622
				c-3.4136047,10.4550781-6.0148621,24.0170593-7.4333801,31.4700012
				c-1.4185181,7.4529114-4.2254639,27.2399902-8.2266846,41.3597717s-11.2436523,37.3708496-11.2436523,37.3708496"/>
			<g>
				<polyline class="st11" points="398.2605896,329.5473328 396.5162659,358.1760559 401.2158813,365.6960144 				"/>
				<line class="st11" x1="403.7225952" y1="332.1679688" x2="401.2158813" y2="365.6960144"/>
			</g>
		</g>
	</g>
</g>
<g id="WOMAN_BODY">
	<g>
		<g>
			<path class="st0" d="M370.9996338,212.4790802l25.7885437,10.9145813c0,0,53.9577942,95.3400421,53.1323853,95.6094818
				c-0.8254089,0.2694702-24.9129333,17.5709534-50.8354187,20.8574524
				c-25.9225159,3.286499-32.390564-1.6045837-32.390564-1.6045837l-9.7253113-69.8954163l-7.9847107-33.3195953
				L370.9996338,212.4790802z"/>
			<path class="st12" d="M449.9205627,319.0031433c-0.8254089,0.2694702-24.9129333,17.5709534-50.8354187,20.8574524
				c-25.9225159,3.286499-32.390564-1.6045837-32.390564-1.6045837"/>
			<path class="st12" d="M437.4309387,320.8476257c0,0-38.1790466,16.7258301-67.4475708,13.4931335"/>
		</g>
		<path class="st1" d="M397.2713623,292.9570923c15.9794006,40.8542786,42.9488525,70.0102234,42.9488525,70.0102234
			c18.4689941,3.713562,39.6862793-8.2911682,39.6862793-8.2911682s-34.3546448-54.9500732-45.9234924-77.9658813
			c-11.5688171-23.0157928-32.7671204-78.0481873-32.7671204-78.0481873s-17.8058777,7.5264587-24.9888,11.2519226
			c2.1730347,4.97789,10.9447327,25.6552124,14.07547,41.4758911
			C393.87677,269.5014038,397.2713623,292.9570923,397.2713623,292.9570923z"/>
		<g>
			<path class="st1" d="M365.931427,213.2749786c0,0-6.2678833,0.5263062-18.9980164,3.3627625l1.7475891,23.0692444
				c0,0-0.5440063,16.1973114,0.3035583,19.7263641c0.8475952,3.5290222,8.696991,19.5030212,8.696991,19.5030212
				s1.9819946,62.9008789-2.5292664,97.2409668c0,0,24.7989807,1.2887268,34.6760864-4.8279724
				c0,0-8.2042847-24.9767761-13.3348999-43.8021545s-6.2675476-32.2563782-6.2675476-32.2563782
				s-3.7958374-47.0683899-4.3135071-57.0480347C365.3947144,228.2631531,365.931427,213.2749786,365.931427,213.2749786z"/>
			<path class="st13" d="M347.0845642,218.6328583l1.5964355,21.0741272c0,0-0.5440063,16.1973114,0.3035583,19.7263641
				c0.8475952,3.5290222,8.696991,19.5030212,8.696991,19.5030212s0.2563477,11.3467102,0.4248352,27.5001526"/>
		</g>
		<g>
			<path class="st1" d="M371.5951843,207.4640503c5.8275452-0.9420929,14.6748047,9.8235168,20.3011169,20.0637054
				l-4.3572998,7.7145844l9.8062744,8.9771423c0,0-1.7042847,26.3338928-0.0739136,48.7376099
				c0,0-8.6331482-34.5287476-13.059967-53.6853638c-6.5633545-19.017334-15.5950317-16.8393097-16.8319702,3.4649963
				c-0.3816223,22.1471252,2.8464966,52.5541077,2.8464966,52.5541077s-10.0148926-28.1914673-13.5473328-43.9865417
				l6.8659668-10.0558167l-5.0866699-6.2554169C358.4578857,234.9930573,360.5093079,209.2562408,371.5951843,207.4640503z"/>
			<path class="st13" d="M368.8882141,290.9475098c0,0-8.6771851-23.8481445-12.2096252-39.643219l6.8659668-10.0558167
				l-5.0866699-6.2554169c0,0,0.6949463-8.7186127,3.4616699-16.360199"/>
			<path class="st13" d="M380.2368469,211.7188263c4.161499,3.911499,8.4383545,9.9463196,11.6594543,15.8089294
				l-4.3572998,7.7145844l9.8062744,8.9771423c0,0-1.3012085,20.1056824-0.5420227,40.1271667"/>
		</g>
	</g>
</g>
<g id="WOMAN_HAIR">
	<g>
		<path class="st4" d="M368.0722351,171.2593689c0,0,0.68927-9.0357208,6.1503601-13.1902008
			c5.4610596-4.1544952,12.2279053,0.4217529,16.307251,7.7260437c4.0793457,7.3042755,1.161377,16.2309723-10.4260864,12.5841675
			C371.0005188,175.5144043,368.0722351,171.2593689,368.0722351,171.2593689z"/>
		<path class="st4" d="M369.7251282,170.7075348c0,0,12.0572205,1.1248932,14.816925,10.4915161
			c2.7597046,9.3666077-9.8321228,22.9589081-20.3788452,21.5007477s-11.5956726-9.5904541-11.5956726-9.5904541
			s-7.6660767,2.5023651-10.8522034-4.5553131c-3.1861572-7.0576935-0.0711975-9.8904419,4.0327759-10.7854614
			c0,0-5.1914062-8.2443542,2.6448364-12.5519867C356.2291565,160.9089508,364.2962646,162.6437988,369.7251282,170.7075348z"/>
		<path class="st11" d="M369.7251282,170.7075348c0.0043335,0.0003967,8.8638916,0.8283691,13.1304626,6.9657745"/>
	</g>
</g>
<g id="WOMAN_NECK">
	<g>
		<path class="st7" d="M367.3830872,242.7355347c3.0211182,4.5914001,7.6796875,5.5063019,7.6796875,5.5063019
			c5.7186584-2.3661194,9.1534424-8.9676514,9.1534424-8.9676514l-6.3195801-19.3587646
			c-1.6548767-5.2931824-4.575592-18.3813477-5.622345-23.1545715c-0.2420654-1.114502-0.3843994-1.7743378-0.3843994-1.7743378
			l-8.4472351,4.9009705c0,0,1.1994629,4.3457794,2.3809509,9.2333374c1.1170044,4.652832,2.1942444,9.8180084,2.1794128,12.1975708
			C367.9653931,226.2020264,367.3830872,242.7355347,367.3830872,242.7355347z"/>
		<path class="st4" d="M365.8236084,209.1208191c4.6995239-3.3243256,6.1152954-8.463028,6.4506836-12.3599701
			c-0.2420654-1.114502-0.3843994-1.7743378-0.3843994-1.7743378l-8.4472351,4.9009705
			C363.4426575,199.8874817,364.6421204,204.2332611,365.8236084,209.1208191z"/>
	</g>
</g>
<g id="WOMAN_HEAD">
	<g>
		<path class="st7" d="M350.5447083,184.0996399c0,0-1.2075806,7.8692474,2.058197,16.0320587
			c3.2658081,8.1628113,10.0462952,6.2806549,15.3466797,0.7653046c5.300415-5.5153656,5.323822-16.5124512,5.323822-16.5124512
			s-0.5003357-9.2705078-7.482666-10.6215668C358.8084412,172.4119263,351.9622498,176.5354919,350.5447083,184.0996399z"/>
		<path class="st4" d="M366.0782471,176.6432648c0,0-5.6890869,10.5037994-18.2884827,10.6146851
			c0,0,1.5174561-18.1988373,17.1603088-16.3749847s13.9892883,14.5480652,7.8681641,19.0718689
			C372.8182373,189.954834,367.1896057,187.1533966,366.0782471,176.6432648z"/>
		<g>
			<g>
				<path class="st7" d="M369.8735657,195.2497101l1.2116699-5.894928c0,0,2.0390015-4.4582977,6.0387878-3.8561249
					C381.1238403,186.1008148,381.5865173,196.3887024,369.8735657,195.2497101z"/>
				<path class="st14" d="M376.9900513,187.8879395c0,0-3.7955017,1.1940155-5.7633362,4.8050079"/>
				<path class="st14" d="M375.6163025,192.3308105c0,0-0.2828064-1.5354614-1.2429199-3.0813141"/>
			</g>
			<path class="st15" d="M372.8072815,193.6745911c-1.4377747,0.6169891-1.7568665,3.0895844-0.712738,5.5227203
				c1.0441284,2.4331207,3.0561218,3.9053955,4.493866,3.2884064s1.7568665-3.0895844,0.7127075-5.5227203
				c-0.4028931-0.938858-0.9498596-1.7346497-1.5523682-2.3225555"/>
		</g>
	</g>
</g>
<g id="WOMAN_FACE">
	<g>
		<path class="st4" d="M365.5942688,184.5159149c0,0-2.030304-3.3285522-4.5538635-1.7662811
			c0,0-0.141571-0.7844086-0.8342285-0.7407227s-0.5701599,2.2119446-0.5701599,2.2119446
			S362.7843323,183.6786652,365.5942688,184.5159149z"/>
		<path class="st4" d="M350.8910522,187.4888306c0,0-0.1010437-3.5642548,2.0328979-2.7623138
			c0,0-0.0055542-0.6591034,0.4320679-0.7722931c0.7568665-0.195755,1.0942688,1.8264008,1.0942688,1.8264008
			S352.245575,186.0162811,350.8910522,187.4888306z"/>
		<g>
			
				<ellipse transform="matrix(0.9928507 -0.1193627 0.1193627 0.9928507 -20.0996037 44.6831207)" class="st4" cx="362.9595642" cy="190.1306458" rx="1.4638249" ry="1.8098199"/>
			<circle class="st5" cx="362.5625" cy="189.5316772" r="0.3892443"/>
		</g>
		<g>
			
				<ellipse transform="matrix(0.9928507 -0.1193627 0.1193627 0.9928507 -20.2836723 43.668541)" class="st4" cx="354.3979492" cy="191.1599426" rx="1.4638249" ry="1.8098199"/>
			<circle class="st5" cx="354.0009155" cy="190.5609589" r="0.3892443"/>
		</g>
		<path class="st12" d="M358.1366577,190.3308868l0.395874,3.5177002c0,0-2.5128479,0.3224487-1.778656,1.6878815
			c0.7212219,1.3412628,2.622345,0.6162872,2.622345,0.6162872"/>
		<path class="st12" d="M358.7702637,200.108078c0,0,3.398468,0.7574005,6.1340942-2.8515625"/>
	</g>
</g>
<g id="WOMAN_LEFT_UPPER_ARM">
	<g>
		<g>
			<g>
				<path class="st1" d="M401.2158813,198.6620789c-6.4093933,5.5075073-11.6177063,22.7463379,0.1458435,36.1713715
					c10.5210876,12.0070953,37.2759399,33.4123993,43.2422485,34.3856354
					c5.9662781,0.9732056,11.0494995-6.6843872,11.0494995-6.6843872s-0.6825562-11.0029297-2.6732788-14.5019531
					c-1.9906921-3.4990234-4.183075-6.3603821-4.183075-6.3603821l-2.3009033,1.461731
					c0,0-24.5218506-27.7681427-33.6238403-36.317627C403.7703552,198.2669678,401.2158813,198.6620789,401.2158813,198.6620789z"/>
				<path class="st13" d="M432.2178345,261.3822327c-9.3564453-5.6138611-23.5870056-18.4396057-30.2406311-25.8548737
					c0,0-11.497406-11.17659-7.0953369-26.0331116"/>
			</g>
		</g>
		<path class="st4" d="M432.1487122,240.4396973c-11.5767212,7.6634521-3.6763916,38.1782837,14.8154297,31.6703491
			s13.2948608-20.9465332,7.8395691-27.7915344C449.3484192,237.4734955,440.3796082,234.9910889,432.1487122,240.4396973z"/>
	</g>
</g>
<g id="WOMAN_HANDS">
	<g>
		<path class="st7" d="M442.2844543,246.4400787l-50.2090759,0.556488c0,0-5.5035706-18.2039642-6.059021-20.4369354
			c-0.5554504-2.2329559-14.0496216-3.5384674-17.2050476-1.6015778s-7.388092,9.5854797-7.0465088,12.8941956
			c0.3415833,3.3087006,10.1095581,15.1334076,10.1095581,15.1334076l-26.9727173,21.4276428
			c0,0-2.5432739,8.7388,3.3256531,13.1793823c5.8689575,4.4406128,11.3659058,0.8049927,15.6475525-3.7613525
			c5.0133667-5.3467102,15.4015808-29.3256531,15.4015808-29.3256531s3.1550293,0.5778046,8.6881714-1.6060944
			c0,0,41.0183716,12.9376068,49.8453674,12.8780975c8.8269958-0.0594788,11.2028503-3.8316345,10.5959778-9.8323059
			S442.2844543,246.4400787,442.2844543,246.4400787z"/>
		<path class="st12" d="M379.8932495,224.3667755c-4.1910095-0.5626373-9.2947693-0.5057373-11.0819397,0.5912781
			c-1.1879883,0.7292328-2.5286865,2.2680817-3.7204895,4.0801392"/>
		<path class="st12" d="M371.7350769,226.1425781c0,0,5.2104797-1.02565,5.5787964,1.0253754
			s-4.4508362,1.8416443-7.0041504,3.2035828c-2.5533142,1.3619537-2.6917725,3.3211212-2.1963501,4.4529724
			c0.4953918,1.1318665,2.035675,0.3429413,3.6134033-0.7515869c3.6216431-2.5124664,6.8177795-2.5718842,8.5100708-1.7401886
			c2.3913269,1.1752167-2.3457642,3.4455414-5.3236084,4.975235c-3.8826294,1.9944611-4.7398987,3.9256592-4.0113831,5.0350037
			c0.7284851,1.1093445,3.7258606-0.911438,6.3913574-1.8948822c2.6655273-0.9834442,5.0907898-0.5036469,5.4893799,1.456131
			c0.3985901,1.9597931-3.4439697,1.9384918-4.5509644,3.3264771c-1.1070251,1.3879852,1.554657,4.4350891,1.7045288,5.7493286
			c0.1498718,1.3142242-0.8376465,2.5660553-0.8376465,2.5660553"/>
	</g>
</g>
<g id="GROUND">
	<g>
		<g>
			<line class="st16" x1="427.9377136" y1="571.1170654" x2="545.6668091" y2="571.1170654"/>
			<line class="st16" x1="64.3657379" y1="571.1170654" x2="402.0906067" y2="571.1170654"/>
		</g>
		<g>
			<line class="st16" x1="171.3821106" y1="589.6132202" x2="117.5630264" y2="589.6132202"/>
			<line class="st16" x1="497.9150696" y1="589.6132202" x2="188.9059753" y2="589.6132202"/>
		</g>
	</g>
</g>
<g id="ORNAMENT_9">
	<g>
		<line class="st16" x1="69.084938" y1="394.5551453" x2="69.084938" y2="400.335022"/>
		<line class="st16" x1="69.084938" y1="406.5045471" x2="69.084938" y2="412.2844543"/>
		<line class="st16" x1="77.9495926" y1="403.4197998" x2="72.1697083" y2="403.4197998"/>
		<line class="st16" x1="66.0001755" y1="403.4197998" x2="60.220295" y2="403.4197998"/>
	</g>
</g>
<g id="ORNAMENT_8">
	<g>
		<line class="st16" x1="487.8527222" y1="388.6142273" x2="487.8527222" y2="394.394104"/>
		<line class="st16" x1="487.8527222" y1="400.5636597" x2="487.8527222" y2="406.3435364"/>
		<line class="st16" x1="496.7173767" y1="397.4788818" x2="490.9375" y2="397.4788818"/>
		<line class="st16" x1="484.7679749" y1="397.4788818" x2="478.9880981" y2="397.4788818"/>
	</g>
</g>
<g id="ORNAMENT_7">
	<g>
		<line class="st16" x1="484.3388062" y1="162.0886688" x2="484.3388062" y2="164.9786072"/>
		<line class="st16" x1="484.3388062" y1="168.0633698" x2="484.3388062" y2="170.9533081"/>
		<line class="st16" x1="488.7711182" y1="166.5209808" x2="485.8811951" y2="166.5209808"/>
		<line class="st16" x1="482.7964172" y1="166.5209808" x2="479.9064941" y2="166.5209808"/>
	</g>
</g>
<g id="ORNAMENT_6">
	<circle class="st16" cx="144.5918884" cy="133.705719" r="4.5803947"/>
</g>
<g id="ORNAMENT_5">
	<circle class="st17" cx="66.1949997" cy="207.4063721" r="5.2019591"/>
</g>
<g id="ORNAMENT_4">
	<circle class="st17" cx="520.6898804" cy="263.9766235" r="7.8395782"/>
</g>
<g id="ORNAMENT_3">
	<circle class="st17" cx="101.4224396" cy="462.9290466" r="7.8395782"/>
</g>
<g id="ORNAMENT_2">
	<circle class="st17" cx="515.2097168" cy="455.0894775" r="5.5169287"/>
</g>
<g id="ORNAMENT_1">
	<circle class="st17" cx="430.5742188" cy="112.6782761" r="6.8567262"/>
</g>
<g id="RAIN_DROP_7">
	<g>
		<line class="st18" x1="98.7304153" y1="96.6008835" x2="111.6486511" y2="120.9722977"/>
		<line class="st18" x1="118.3980865" y1="133.705719" x2="128.480423" y2="152.7269592"/>
	</g>
</g>
<g id="RAIN_DROP_6">
	<g>
		<line class="st18" x1="147.1435242" y1="74.961647" x2="176.572937" y2="130.4828796"/>
		<line class="st18" x1="134.1988678" y1="50.54039" x2="141.3896332" y2="64.1064072"/>
	</g>
</g>
<g id="RAIN_DROP_5">
	<g>
		<line class="st18" x1="213.4836273" y1="87.1433029" x2="218.0985565" y2="95.8497849"/>
		<line class="st18" x1="179.7479248" y1="23.4978466" x2="204.6615753" y2="70.4997177"/>
	</g>
</g>
<g id="RAIN_DROP_4">
	<g>
		<line class="st18" x1="244.1517792" y1="32.0266075" x2="266.90979" y2="74.9616547"/>
		<line class="st18" x1="233.9826355" y1="12.8415842" x2="239.6310577" y2="23.4978466"/>
	</g>
</g>
<g id="RAIN_DROP_3">
	<g>
		<line class="st18" x1="320.8372498" y1="67.4905853" x2="324.7973328" y2="74.9616394"/>
		<line class="st18" x1="291.8701477" y1="12.8415842" x2="316.2088318" y2="58.7586861"/>
	</g>
</g>
<g id="RAIN_DROP_2">
	<g>
		<line class="st18" x1="357.4017334" y1="23.4978466" x2="364.9863586" y2="37.8069649"/>
		<line class="st18" x1="413.1246948" y1="128.6242218" x2="417.4320374" y2="136.7504425"/>
		<line class="st18" x1="371.7358093" y1="50.54039" x2="410.1986084" y2="123.1039429"/>
	</g>
</g>
<g id="RAIN_DROP_1">
	<g>
		<line class="st18" x1="443.8426819" y1="73.6015472" x2="473.993042" y2="130.4829254"/>
		<line class="st18" x1="480.7424622" y1="143.2163391" x2="485.7836304" y2="152.7269592"/>
	</g>
</g>
</svg>
