<?xml version="1.0" encoding="utf-8"?>
<!-- Generator: Adobe Illustrator 25.2.3, SVG Export Plug-In . SVG Version: 6.00 Build 0)  -->
<svg version="1.1" xmlns="http://www.w3.org/2000/svg" xmlns:xlink="http://www.w3.org/1999/xlink" x="0px" y="0px"
	 viewBox="0 0 600 600" style="enable-background:new 0 0 600 600;" xml:space="preserve">
<style type="text/css">
	.st0{fill:#ECBDBB;}
	.st1{fill:none;stroke:#404B7C;stroke-width:1.0509137;stroke-linecap:round;stroke-linejoin:round;stroke-miterlimit:10;}
	.st2{fill:#F68D88;}
	.st3{fill:#404B7C;}
	.st4{fill:none;stroke:#ECBDBB;stroke-width:1.096442;stroke-linecap:round;stroke-linejoin:round;stroke-miterlimit:10;}
	.st5{fill:none;stroke:#9AB3DA;stroke-width:1.0509137;stroke-linecap:round;stroke-linejoin:round;stroke-miterlimit:10;}
	.st6{fill:#9AB3DA;}
	.st7{fill:none;stroke:#404B7C;stroke-width:1.096442;stroke-linecap:round;stroke-linejoin:round;stroke-miterlimit:10;}
	.st8{fill:#FFFFFF;}
	.st9{fill:none;stroke:#6B81BE;stroke-linecap:round;stroke-linejoin:round;stroke-miterlimit:10;}
	.st10{fill:#FFABAB;}
	.st11{fill:none;stroke:#ECBDBB;stroke-width:1.0433227;stroke-linecap:round;stroke-linejoin:round;stroke-miterlimit:10;}
	.st12{fill:#B0C8EA;}
	.st13{fill:none;stroke:#D4E6FC;stroke-width:1.0433227;stroke-linecap:round;stroke-linejoin:round;stroke-miterlimit:10;}
	.st14{fill:none;stroke:#9AB3DA;stroke-width:0.9931163;stroke-linecap:round;stroke-linejoin:round;stroke-miterlimit:10;}
	.st15{fill:none;stroke:#404B7C;stroke-width:0.9931163;stroke-linecap:round;stroke-linejoin:round;stroke-miterlimit:10;}
	.st16{fill:none;stroke:#F68D88;stroke-width:0.9931163;stroke-linecap:round;stroke-linejoin:round;stroke-miterlimit:10;}
	.st17{fill:none;stroke:#6B81BE;stroke-width:1.0433227;stroke-linecap:round;stroke-linejoin:round;stroke-miterlimit:10;}
	.st18{fill:#E9F3FF;}
</style>
<g id="MAN_LEFT_ARM">
	<g>
		<path class="st0" d="M518.8538208,121.8206482c-1.2699585,3.6900024-8.5500183,11.9899902-10.6200256,14.289978
			c-1.8599854,4.0599976-23.4899902,50.8800049-30.7599487,52.4700317
			c-7.6000366,1.6599731-53.0900269-30.1800537-53.0900269-30.1800537S412.1138,154.160614,414.6138,140.2406311
			s14.1500244-14.8699951,14.1500244-14.8699951c8.3099976-0.2299805,12.5899658,5.9400024,19.960022,13.5499878
			c7.3599854,7.5999756,26.1399536,23.5200195,26.1399536,23.5200195l23.210022-30.1099854
			c-0.4700317-0.460022-0.7999878-0.8500366-0.9000244-1.1100464c-0.5499878-1.4099731-1.1799927-7.6199951-1.1799927-7.6199951
			s-3.2099609-5.2199707-3.2799683-6.9400024c-0.0800171-1.7299805,1.3299561-6.7399902,2.5799561-7.1300049
			c1.25-0.3899536,4.3000488,0.7800293,4.3000488,0.7800293s1.7299805-1.4000244,3.3699951-1.0900269
			c1.6399536,0.3099976,2.1900024,2.1100464,2.1900024,2.1100464s2.6599731-0.7800293,4.1499634,0
			c1.4899902,0.7799683,1.960022,1.8799438,1.960022,1.8799438s1.7200012-0.2299805,3.3700256,1.4100342
			C516.2738647,116.2606506,518.8538208,121.8206482,518.8538208,121.8206482z"/>
		<path class="st1" d="M474.0274048,164.225296c0,0-3.802002,7.1287079-1.5445557,14.9703064"/>
		<path class="st1" d="M499.3343201,111.5916367c0,0-1.0581055,4.3169022-1.3013306,6.316864
			c-0.1445618,1.188652,0.9175415,2.4689407,1.8030396,3.3120651c0.6826477,0.6500015,1.6083679,0.9864044,2.5455627,0.8853836
			c0.5501404-0.0593033,1.1383057-0.1724396,1.519989-0.3866196"/>
		<path class="st1" d="M504.5620422,112.6015396c0,0-1.7227783,3.9801941-1.5445557,6.2376175
			c0.1782227,2.257431,1.3069458,4.0396042,2.9703064,4.7524796c1.6633606,0.7128677,3.2079163,0,3.2079163,0"/>
		<path class="st1" d="M510.2650146,114.0866852c0,0-2.0198059,3.6831665-2.0198059,5.6435623
			s0.8910828,3.8613892,2.0198059,4.3960419s3.3267212,0.7128677,3.8613892-0.4752502s-0.7128906-3.742569-0.7128906-3.742569
			l1.1287231-0.3564377"/>
		<g>
			<path class="st0" d="M498.0329895,117.9085007c0,0-4.4621582-0.5479813-5.7146606-0.5479813
				c-1.252533,0-3.1313477,1.5656662-3.2096252,2.6616287s0.0782776,5.7030182,0.7828369,6.8830948
				c0.7045593,1.180069,8.717926,5.932312,8.717926,5.932312s3.5725403,0.1013184,4.1205139-4.3608246
				s-6.8197937-6.3409348-6.8197937-6.3409348s5.4107056-0.0771027,5.4107056-2.6616287
				C501.3208923,117.9867859,498.0329895,117.9085007,498.0329895,117.9085007z"/>
			<path class="st1" d="M502.0648193,130.6925659c0.3114929-0.5724335,0.5523682-1.2974854,0.6651611-2.2158356
				c0.5479736-4.4621429-6.8197937-6.3409348-6.8197937-6.3409348s5.4107056-0.0771027,5.4107056-2.6616287
				c0-1.487381-3.2879028-1.5656662-3.2879028-1.5656662s-1.8117371-0.222496-3.4503784-0.383934"/>
		</g>
	</g>
</g>
<g id="MAN_LEFT_LEG">
	<g>
		<g>
			<path class="st0" d="M404.4592896,269.5170593l-43.3526917,0.3323059l-4.5484924,107.3741455
				c-0.2862244,6.7565918,1.0212708,13.9420776,5.0538635,17.9747009l2.6506958,1.1680908
				c7.422821,3.2710876,16.2496643-0.2086792,19.0719604-7.813446c0.2165527-0.5835266,0.3738098-1.1334229,0.4614563-1.6313782
				L404.4592896,269.5170593z"/>
			<g>
				<path class="st2" d="M407.8187866,272.2006531l-13.6199951,76.4899902l-0.5,2.8200073l-43.3499756-3.7000122
					c0,0,0.7199707-28.1099854,2.3499756-52.2200317c0.8600464-12.7099609,1.9700317-24.3099976,3.3600464-30.1099854
					c2.2299805-9.2600098,7.1599731-18.2799683,13.5699463-25.3399658
					c4.9400024-3.3900146,11.7300415-6.0500488,20.8400269-6.0500488
					C415.4188232,234.0906067,407.8187866,272.2006531,407.8187866,272.2006531z"/>
				<path class="st3" d="M394.1987915,348.6906433l-0.5,2.8200073l-43.3499756-3.7000122
					c0,0,0.7199707-28.1099854,2.3499756-52.2200317L394.1987915,348.6906433z"/>
				<line class="st4" x1="354.235321" y1="341.6114502" x2="389.9360352" y2="344.2253113"/>
			</g>
		</g>
		<g>
			<g>
				<path class="st0" d="M336.0731506,382.199646c11.4689026,5.8757629,20.1068115,10.2827759,20.8939819,10.6252441
					c1.0237122,0.4436646,4.1409302,2.1147766,7.4620056,3.9317322c5.3893433,2.9485474,12.1494751,0.6716919,14.6624146-4.934021
					l0.2089539-0.4661255c2.9472351-6.5744934,0.2221375-14.296051-6.190094-17.5814514
					c-7.8962402-4.0457458-18.3596497-9.0036926-26.118866-11.2018433
					c-0.4251709-0.1225281-0.8623352-0.2461548-1.3049622-0.3763123
					c-23.5806274-6.7640076-63.5758057-20.9270935-63.5758057-20.9270935l-9.3740845,8.3783569
					C272.7366943,349.6481323,311.1082458,369.4081116,336.0731506,382.199646z"/>
				<path class="st2" d="M272.7366943,349.6481323l9.3740845-8.3783569c0,0,39.9951782,14.1630859,63.5758057,20.9270935
					l-9.6134338,20.0027771C311.1082458,369.4081116,272.7366943,349.6481323,272.7366943,349.6481323z"/>
			</g>
			<g>
				<g>
					<g>
						<path class="st3" d="M285.0715027,341.9587097c0,0-5.8571472,4.3804016-8.1792908,11.081543
							c0,0-17.9102173-0.7790833-25.352951,1.9295044c-7.4427185,2.7086182-14.1220398,5.7493286-21.648407-3.2446594
							l41.0439301-34.3464661C270.9347839,317.3786316,283.5829773,330.8978271,285.0715027,341.9587097z"/>
						<path class="st5" d="M259.1080933,347.0097656c0,0,7.4963379-1.2667236,15.5051575-1.0508118"/>
						<path class="st2" d="M254.4295654,340.6571655c0,0,3.4312134,8.2337341,0.8158264,14.2453918
							c0,0-9.7524414,3.7918701-14.4877625,4.6596375s-8.2646484-2.9146423-11.7590332-7.0904236l42.7213745-35.7502136
							l4.6591797,5.567688L254.4295654,340.6571655z"/>
					</g>
				</g>
			</g>
		</g>
	</g>
</g>
<g id="MAN_RIGHT_LEG">
	<g>
		<g>
			<path class="st0" d="M379.573822,266.7606506l-30.4199829,30.8899536l72.7087097,79.1412659
				c4.5752258,4.980011,10.5806885,9.1364136,16.2836609,9.1364136l2.7002869-1.0483704
				c7.5617371-2.93573,11.3427124-11.6377869,7.960968-19.0108643c-0.259491-0.5657349-0.5371094-1.0657654-0.8272705-1.4798279
				L379.573822,266.7606506z"/>
			<path class="st2" d="M383.8491516,266.2846985l-1.3137817-10.1821289
				c-0.8411865-6.519165-4.7755737-12.3549194-10.7122192-15.1768188c-2.4838867-1.1806641-5.4987183-1.9677734-9.1224976-1.9677734
				c-6.3861084,0-11.9419556,1.9832764-16.1596069,4.2023315c-6.291687,3.3102417-10.5996094,9.4227295-11.772644,16.4346313
				c-2.0852051,12.4647827,0.7821045,27.1883545,7.7342529,38.531311
				c9.0296631,14.732666,54.1782227,62.2574463,54.1782227,62.2574463l33.2672729-28.0396118L383.8491516,266.2846985z"/>
			<line class="st4" x1="395.8491821" y1="352.0488586" x2="423.1142578" y2="328.5421448"/>
			<path class="st4" d="M354.7120361,313.9917603c9.0492554,10.739502,20.7910156,23.6476135,29.552887,33.1183777"/>
			<polyline class="st4" points="401.5452881,291.6430664 383.8491516,266.2846985 382.5353699,256.1025696 			"/>
		</g>
		<g>
			<g>
				<path class="st0" d="M464.5038147,407.5106506c-5.8900146-13.9100342-10.3399658-24.3699951-10.789978-25.2700195
					c-0.5865479-1.1689758-2.1317139-5.0162964-3.7503967-9.1481018c-2.62677-6.7049866-10.416748-9.7436829-16.8929138-6.5947266
					l-0.5385132,0.2618408c-7.5953979,3.6931763-10.9543762,12.6846924-7.661499,20.4620056
					c4.0549927,9.57724,9.7315674,21.9057922,15.0532837,29.7189941c0.2900391,0.4299927,0.5900269,0.8699951,0.8900146,1.3200073
					c16.1099854,23.8200073,41.4100342,66.6399536,41.4100342,66.6399536l14.7299805-0.4799805
					C496.9538269,484.4206238,477.323822,437.7906189,464.5038147,407.5106506z"/>
				<path class="st2" d="M496.9538269,484.4206238l-14.7299805,0.4799805c0,0-25.3000488-42.8199463-41.4100342-66.6399536
					l23.6900024-10.75C477.323822,437.7906189,496.9538269,484.4206238,496.9538269,484.4206238z"/>
			</g>
			<g>
				<g>
					<g>
						<path class="st3" d="M480.0805054,482.0539856c0,0,8.5607605,0.4683533,15.6894531-3.8088989
							c0,0,15.5147705,14.1739502,24.2432251,17.3380127s17.0205078,5.4552917,17.0205078,19.2026062h-62.7358093
							C474.2978821,514.7857056,473.0977173,493.1172485,480.0805054,482.0539856z"/>
						<path class="st5" d="M507.2208252,497.0450439c0,0-7.6919556-4.5006104-14.7292786-10.719635"/>
						<path class="st2" d="M506.6477356,506.2754517c0,0,3.1095276-9.9831543,9.9831848-13.4199829
							c0,0,11.619751,3.9277954,16.529541,6.7099915c4.909729,2.782196,5.2370605,8.8375549,5.2370605,15.2202454h-65.2998047
							v-8.5102539H506.6477356z"/>
					</g>
				</g>
			</g>
		</g>
	</g>
</g>
<g id="MAN_BODY">
	<g>
		<path class="st0" d="M379.1560974,118.2451019l13.9901123-3.5643616h9.2610168l15.2553101,4.633667
			c0,0-0.6351318,12.6534576-13.8232727,14.0792084C390.6511536,134.8193512,381.4729309,126.7995529,379.1560974,118.2451019z"/>
		<g>
			<path class="st6" d="M338.1660156,243.5322266c0,0-6.7722778-6.0594025-7.1287231-9.2673187
				c-0.3564453-3.2079315,4.098999-10.6930695,6.7722778-19.2475281s2.8514709-14.0792084,3.7425842-15.1485138
				c0.8910828-1.0693054,2.3168335-1.7821808,2.3168335-1.7821808s-4.0990295-26.0198059-4.0990295-27.9801941
				c0-1.9604034-3.9207764-23.3465424,2.6732788-35.6435699s14.4356384-13.7227707,14.4356384-13.7227707l22.9901123-4.4554443
				c0,0,5.8811646,14.4356461,18.3564148,14.0792007c12.4752502-0.3564301,12.1188049-14.4356384,12.1188049-14.4356384
				l20.4950562,5.3465347c0,0,5.7623901,13.8415909,5.5247498,25.2475204
				c-0.2376099,11.4059448-6.8910828,22.0990143-11.6435547,29.2277222
				c-4.7524719,7.1287231-13.3069153,30.1782227-13.3069153,33.267334s1.6633606,3.0891113,1.4257202,5.4653473
				c-0.2376099,2.376236-6.1782227,10.2178192-6.1782227,10.2178192s2.8515015,7.366333,2.8515015,9.2673187
				c0,1.901001-5.4653625,8.7920837-5.4653625,8.7920837S365.9085693,256.4233093,338.1660156,243.5322266z"/>
			<path class="st7" d="M407.9589233,206.4299316c0,0-18.6444092,13.0428925-32.1889648,14.4686279
				c-13.5445557,1.4257507-24.4361267-18.5346527-24.4361267-18.5346527"/>
			<path class="st7" d="M402.9020996,225.8214111c0,0-13.9377747,10.3995056-27.4885559,15.0843811"/>
			<path class="st3" d="M355.6313477,125.0991364c-9.3233643,1.5764313-16.9306946,16.4924927-14.0791931,31.4627991
				c2.8514709,14.9702911,18,16.2178192,27.6237488,1.6039581
				C378.7996826,143.5520325,370.9580994,122.5076294,355.6313477,125.0991364z"/>
		</g>
	</g>
</g>
<g id="MAN_WAIST">
	<g>
		<path class="st2" d="M333.7722168,244.625061l-0.6445007,10.3119354
			c-0.0756531,1.2102509,0.7305298,2.2945709,1.9129028,2.5636749c5.8469238,1.3308716,23.2880859,4.938446,39.7788391,4.7444153
			c16.0380554-0.1886597,28.9298096-4.722168,33.5598755-6.5816193c1.084259-0.4354401,1.7095337-1.5667267,1.5085754-2.7177277
			l-1.7442627-9.9898224c-0.2652588-1.5192719-1.8340759-2.4299469-3.281189-1.8966827
			c-7.3242188,2.6989746-29.4368896,8.6711426-68.172699,1.2895508
			C335.2328491,242.0711517,333.8647156,243.1448212,333.7722168,244.625061z"/>
		<path class="st4" d="M337.7150574,258.0867615c7.4676819,1.5781555,22.651062,4.3283691,37.1044006,4.1583252
			c16.0380554-0.1886597,28.9298096-4.722168,33.5598755-6.5816193"/>
		<g>
			<line class="st4" x1="341.5521545" y1="246.5619354" x2="340.8392639" y2="255.235199"/>
			<line class="st4" x1="355.2155151" y1="247.5124207" x2="354.62146" y2="256.8985596"/>
			<line class="st4" x1="369.235321" y1="248.1064911" x2="369.1164856" y2="258.0866699"/>
			<line class="st4" x1="383.8491821" y1="248.1064911" x2="384.6808472" y2="257.4926147"/>
			<line class="st4" x1="395.8491821" y1="246.6807404" x2="397.2749023" y2="255.3540039"/>
		</g>
	</g>
</g>
<g id="MAN_HEAD">
	<g>
		<g>
			<path class="st0" d="M390.7402649,115.868866c0,0,5.8108826,2.5802917,10.8457642,1.5401459l3.4411316-11.4324112
				l3.7848816-12.545166l-9.9960632-11.6584778l-0.089386-0.1064911l-0.1234436,0.8022995l-1.0283203,6.5976715
				L390.7402649,115.868866z"/>
			<path class="st3" d="M397.5748291,89.0664368c-0.2599792,5.2189255,0.6897278,12.8229599,7.4523315,16.9101639
				l3.7848816-12.545166l-9.9960632-11.6584778c-0.0934753,0.2638245-0.1552124,0.4927597-0.2128296,0.6958084
				c-0.1772461,0.6350632-0.236969,1.023262-0.2409668,1.0491714
				C398.3621826,83.5179367,397.7410889,85.8332901,397.5748291,89.0664368z"/>
		</g>
		<g>
			<g>
				<path class="st0" d="M419.8391724,81.778801c0,0,3.3325195-3.5439301,6.2170715-1.0651932
					c2.8845215,2.4787369-1.0311584,10.5621948-8.1923523,10.3841476L419.8391724,81.778801z"/>
				<path class="st1" d="M424.3838806,83.0261536c0,0-2.4368591,0.6098404-4.7081604,4.250885"/>
			</g>
			<path class="st0" d="M411.5397644,62.4297333c10.4774475,0.236805,11.4995422,15.5679626,9.1750793,26.5249786
				s-12.2806702,17.1817398-20.7824402,7.7654419S390.1161194,61.9455223,411.5397644,62.4297333z"/>
			<path class="st3" d="M395.2492065,98.1865158l1.9662781-6.3415527l-1.1619568-10.3350677l0.2127991,1.8926849
				c0,0,10.0440979-1.7254944,7.7250671-11.5635757c0,0,8.2341614,9.3909149,18.5257874,9.2769547
				c10.2928467-0.1007614,18.5526733-11.5677872,16.9744568-15.1725464c-1.4978027-3.4525833-6.519989-0.0703354-6.920166,0.2054062
				c0.5487061-0.6880493,11.20401-13.8755379,5.3291016-22.3260689c-6.0269775-8.6626244-24.887146,4.9271355-35.8539124,13.2379112
				c-1.6789551,1.2696037-3.3133545,2.4421692-4.8747559,3.5416298c1.0648804-2.3170471,2.6929016-6.0412521,4.0521545-9.9403076
				c2.2312622-6.4377861-7.7700195-5.0343018-8.0750427,12.6199646c0,0-6.463501-9.8059273-10.7404785-7.5816345
				c-3.605835,1.8573265,2.1723328,7.4985771,7.7004395,9.8127708c-5.0281372,3.6087494-8.4671936,6.7137985-8.982666,10.8284225
				C380.2650757,83.2259979,395.2492065,98.1865158,395.2492065,98.1865158z"/>
			<path class="st2" d="M393.191864,78.1578445c0,0,3.946106-6.7246246,14.7670593-6.6058121
				s16.5542603,5.699585,17.4895935,8.7309799l-3.4187317,4.5090408l-0.5924072-0.2867203
				c0,0-6.0507812-8.3049011-25.3838501-2.9954376L393.191864,78.1578445z"/>
			<g>
				<path class="st0" d="M396.0535278,81.5098953c0,0-1.359436-4.5839996-6.4978943-3.8386765
					s-3.0982361,12.1906738,7.3035889,10.854805L396.0535278,81.5098953z"/>
				<path class="st1" d="M395.0207214,85.3703766c0,0-1.2944641-4.4791489-5.5593567-5.0873642"/>
				<path class="st1" d="M391.0355225,84.7920532c0,0,0.1559753-1.7190781,1.6486511-3.0206299"/>
			</g>
		</g>
		<g>
			<path class="st3" d="M402.9020996,78.1578445c0,0,2.3454285-3.9391937,5.3322449-2.1339645
				c0,0,0.1565857-0.9240799,0.9715576-0.8814087c0.8149719,0.0426788,0.6981812,2.5936432,0.6981812,2.5936432
				S406.1954956,77.1381302,402.9020996,78.1578445z"/>
			<path class="st3" d="M421.4740601,79.1921463c0,0-1.0777893-4.0518646-3.215332-2.4343262
				c0,0-0.2141113-0.7448883-0.7452698-0.7261734c-0.9187012,0.0323792-0.6229553,2.4248199-0.6229553,2.4248199
				S419.4547119,77.9849777,421.4740601,79.1921463z"/>
			<g>
				
					<ellipse transform="matrix(0.1087553 -0.9940686 0.9940686 0.1087553 278.2835999 478.6131287)" class="st3" cx="406.0574036" cy="84.1118393" rx="2.1281016" ry="1.7212585"/>
				<circle class="st8" cx="406.5167236" cy="83.4025803" r="0.4576983"/>
			</g>
			<g>
				
					<ellipse transform="matrix(0.1087553 -0.9940686 0.9940686 0.1087553 286.1708069 489.6158142)" class="st3" cx="416.1370544" cy="85.214592" rx="2.1281016" ry="1.7212585"/>
				<circle class="st8" cx="416.5963745" cy="84.5053329" r="0.4576983"/>
			</g>
			<path class="st1" d="M413.1492615,89.2012405c0,0,1.9577942,0.9708252,1.3515625,2.3923416
				c-0.7024536,1.647171-3.0755615,0.7575607-3.0755615,0.7575607"/>
			<circle class="st1" cx="406.987793" cy="84.1622772" r="4.7712197"/>
			<circle class="st1" cx="418.7370911" cy="85.1367874" r="4.7712197"/>
			<path class="st1" d="M412.1745911,95.7906799c0,0-3.9863892,0.9332123-7.24823-3.275856"/>
		</g>
	</g>
</g>
<g id="MAN_RIGHT_ARM">
	<g>
		<g>
			<path class="st0" d="M320.3760986,211.7579651c0,0,3.5426941-2.7677307,4.4283752-3.6533966
				c0.8856812-0.8856812,1.1070862-3.3212738,0.3874817-4.1515961s-4.0879822-3.9772949-5.4206238-4.3135376
				s-10.359314,1.9697418-10.359314,1.9697418s-2.5977783,2.4545135,0.1699524,5.9971924
				c2.7677307,3.5426941,9.3060608-0.3385925,9.3060608-0.3385925s-3.7714539,3.8804474-1.9439087,5.7079926
				C317.9958801,214.0275116,320.3760986,211.7579651,320.3760986,211.7579651z"/>
		</g>
		<path class="st0" d="M302.8872681,223.7142029c-1.7112122-3.5072327-2.4324341-14.5239563-2.5950623-17.6140137
			c-1.5556641-4.1860657-19.3676758-52.5875244-15.3513489-58.8524933
			c4.2002563-6.5478058,58.8808289-16.1997833,58.8808289-16.1997833s17.4041138-9.0995255,25.4792786,2.5111542
			c3.364624,4.8377838,2.2732849,11.793396,0.8625488,15.1284027c-1.9002075,4.4921417-6.2190857,7.4971008-11.0659485,8.0429688
			c-48.0940247,5.4163361-52.2983398,6.228775-52.2983398,6.228775l3.3500061,38.6296234
			c0.6576538-0.0070801,1.166748,0.0354004,1.4213257,0.1485138c1.3858948,0.6080933,6.2225342,4.553772,6.2225342,4.553772
			s5.9608765,1.4212952,7.2266235,2.588028c1.2798462,1.1667023,3.82547,5.7063141,3.2173462,6.8659821
			c-0.6081238,1.1596222-3.5921326,2.4890289-3.5921326,2.4890289s-0.2333374,2.2132416-1.6121826,3.153717
			c-1.3788452,0.9404144-3.0405884,0.0565338-3.0405884,0.0565338s-0.0654602,1.6080322-1.6705933,2.1100464
			c-1.6051025,0.5020599-2.715271,0.0566254-2.715271,0.0566254s-2.3174744,2.2032471-4.6438599,2.2103271
			C308.6430969,225.8214111,302.8872681,223.7142029,302.8872681,223.7142029z"/>
		<line class="st1" x1="314.8613892" y1="217.0198059" x2="319.3937378" y2="219.990097"/>
		<line class="st1" x1="310.2871399" y1="219.6930695" x2="315.3366394" y2="222.6633606"/>
		<line class="st1" x1="305.1782227" y1="221.7722778" x2="310.9405823" y2="224.267334"/>
		<path class="st1" d="M316.6016541,209.4332123c0.1782227,0,2.7920837,0.4158478,2.7920837,0.4158478
			s-0.7128906-2.257431,0.7128601-2.4356384c1.4257507-0.1782227,3.7337341,0.7751312,3.7337341,0.7751312"/>
		<line class="st1" x1="323.840332" y1="212.225296" x2="319.3937378" y2="209.8490601"/>
		<path class="st1" d="M306.1287231,161.105835c0,0-3.8813782-6.802475-11.0224304-10.7510681"/>
	</g>
</g>
<g id="GROUND">
	<g>
		<g>
			<line class="st9" x1="436.9578857" y1="514.7857056" x2="552.2474976" y2="514.7857056"/>
			<line class="st9" x1="47.7524757" y1="514.7857056" x2="409.2884521" y2="514.7857056"/>
		</g>
		<g>
			<line class="st9" x1="162.3139801" y1="536.8721313" x2="104.7004089" y2="536.8721313"/>
			<line class="st9" x1="511.8689575" y1="536.8721313" x2="181.0733643" y2="536.8721313"/>
		</g>
		<g>
			<line class="st9" x1="351.2405396" y1="558.9586182" x2="390.2865601" y2="558.9586182"/>
			<line class="st9" x1="162.763916" y1="558.9586182" x2="338.3545837" y2="558.9586182"/>
		</g>
	</g>
</g>
<g id="PLANTS">
	<g>
		<g>
			<path class="st6" d="M164.0178528,514.4694824c0,0-2.611618-31.6269531-31.339447-38.3425598
				c-28.7278137-6.7155762,0,29.7185364,0,29.7185364s-23.8776627-18.8989563-38.4281158-13.3026428
				c-14.5504532,5.596344-2.611618,17.2601318,20.8929596,22.2478333L164.0178528,514.4694824z"/>
			<path class="st6" d="M106.3449936,476.5000305c10.6066437,8.5242615,7.0886765,13.6443787-1.865448,6.0760193
				C95.5254211,475.0076599,100.2545776,471.6053162,106.3449936,476.5000305z"/>
		</g>
		<g>
			<path class="st2" d="M402.7208252,485.1959229c0.684906,0.8518372,1.3991089,1.7023926,2.1328735,2.5641785
				c1.304657,1.5231934,2.6665649,3.0507812,4.0592041,4.5700684c8.1178894,8.8927307,17.0740356,17.4178467,19.8809814,22.4604187
				c0,0,7.6124878-19.9907837-2.2779541-43.736084c-1.1774902-2.8280334-2.477478-5.3756104-3.8747559-7.6593323
				c-3.4784546-5.7099915-7.5168457-9.8104248-11.6149597-12.6868591
				c-8.0414734-5.6559448-16.2739868-6.5805359-20.7907104-5.6808472
				C386.3899536,453.7496338,393.6293335,473.9746704,402.7208252,485.1959229z"/>
			<path class="st10" d="M404.8536987,487.7601013c1.304657,1.5231934,2.6665649,3.0507812,4.0592041,4.5700684
				c-0.2236328-6.1608887,1.1193848-14.1264954,8.2142944-18.9450073c3.9382019-2.6679077,5.3918457-6.2772217,5.5139771-9.9899902
				c-3.4784546-5.7099915-7.5168457-9.8104248-11.6149597-12.6868591c0.8508911,4.470459,0.42099,10.0549316-4.415802,14.9252625
				C401.4609985,470.8257446,402.5638733,480.030304,404.8536987,487.7601013z"/>
			<path class="st11" d="M394.6741028,448.6922607c0,0,26.103363,20.3392639,33.3905334,59.6087036"/>
		</g>
		<g>
			<path class="st6" d="M390.0919189,504.5351868c0.5724182,0.3102722,1.160675,0.6131287,1.762207,0.9176025
				c1.0675354,0.5364075,2.167511,1.0620728,3.2824707,1.5760803c6.5076599,3.0163574,13.3911438,5.6376953,16.0944519,7.7617188
				c0,0-0.4209595-12.7357483-11.3225098-23.5038757c-1.2981262-1.2825928-2.598938-2.382843-3.8924561-3.3157959
				c-3.2258911-2.3360596-6.3887329-3.658905-9.3025818-4.2955322c-5.7203369-1.2556763-10.4561462,0.132019-12.7304688,1.6663513
				C373.8787231,491.019165,382.5131836,500.4637451,390.0919189,504.5351868z"/>
			<path class="st12" d="M391.854126,505.4527893c1.0675354,0.5364075,2.167511,1.0620728,3.2824707,1.5760803
				c-1.5415039-3.333252-2.6378784-8.0187988,0.1504822-12.2998047c1.5493164-2.3725586,1.5168152-4.6902466,0.7290039-6.7581482
				c-3.2258911-2.3360596-6.3887329-3.658905-9.3025818-4.2955322c1.4968567,2.2601013,2.5466003,5.4271851,1.0107727,9.2166748
				C386.0907898,496.9303589,388.8162231,501.7333374,391.854126,505.4527893z"/>
			<path class="st13" d="M377.2654724,486.3330994c0,0,19.0245667,5.1635742,32.0705566,25.0600586"/>
		</g>
		<g>
			<path class="st2" d="M236.2465363,481.3806458c1.1800537,0.9799805,2.4000244,1.9500122,3.6500244,2.9299927
				c2.2200317,1.7299805,4.5200195,3.4500122,6.8599854,5.1500244
				c13.6500397,9.9599609,28.3500519,19.1799927,33.6200104,25.3299255c0,0,4.8800049-29.6199646-15.3599854-59.5099182
				c-2.4099731-3.5599976-4.9099731-6.7000122-7.4699707-9.4500122
				c-6.3800201-6.8800049-13.0800323-11.3900146-19.5200348-14.2000122c-12.6400146-5.5300293-24.2200317-4.5-30.1799927-2
				C204.9965363,442.7006531,220.6065826,468.4906311,236.2465363,481.3806458z"/>
			<path class="st10" d="M239.8965607,484.3106384c2.2200317,1.7299805,4.5200195,3.4500122,6.8599854,5.1500244
				c-2.0299683-8.4100342-2.4099731-19.7399902,6-28.3500366c4.6700592-4.7699585,5.6600494-10.1399536,4.7900543-15.2799683
				c-6.3800201-6.8800049-13.0800323-11.3900146-19.5200348-14.2000122
				c2.4199829,5.9099731,3.3900146,13.710022-1.9000244,21.7600098
				C230.4965363,461.9706726,234.5865631,474.3206482,239.8965607,484.3106384z"/>
			<path class="st11" d="M214.975174,433.429657c0,0,41.5841522,20.6732788,62.5841522,72.6401367"/>
		</g>
		<g>
			<path class="st6" d="M246.5146179,513.480896c0,0-11.1603241-18.5498352-26.0953979-31.8044434
				c-11.5204163-10.2241516-30.9535828-13.555481-38.4490662-12.4450378
				c0.6940308,7.9119263,7.2746277,20.1633301,17.8093719,28.5312195
				C212.0909119,507.541687,231.3818054,512.8162842,246.5146179,513.480896z"/>
		</g>
	</g>
</g>
<g id="WOMAN_RIGHT_ARM_1_">
	<path class="st0" d="M240.2836914,127.3617935c4.7714386-7.7462997,15.2817078-3.0843964,18.9071045,4.6471024
		c3.6253967,7.7315216-18.5651093,70.859848-18.5651093,70.859848l29.644455,16.9708862
		c0,0,8.9291077-2.9775543,10.6244812-2.7399292c1.6953735,0.2376099,4.5800781,4.862915,4.5800781,4.862915
		s2.1710205,0.4176636,2.95578,0.8758545c0.7847595,0.4582062-0.7270203,4.0410156-0.4754333,4.0260162
		c0.2515869-0.0149841,0.9930115,1.8344574,0.3526611,3.0929718c-0.6403809,1.2585144-2.2621155,2.9963226-2.2621155,2.9963226
		s0.1888123,1.7561493-0.4320984,2.6347656c-0.6209412,0.8786316-3.0863037,2.58255-3.0863037,2.58255
		s-0.0233459,1.4089813-1.3201904,2.4025879s-4.8477783,1.4148102-6.8517151,0.6299286
		c-2.0039673-0.7848816-2.7920532-5.535141-2.7920532-5.535141s-1.6778259-0.6153717-3.1190491-1.497345
		c-1.4412537-0.881958-2.1757812-5.1694946-2.1757812-5.1694946s-34.9142151-8.526535-40.5125275-13.4950714
		S228.3923645,146.667099,240.2836914,127.3617935z"/>
</g>
<g id="WOMAN_LEFT_LEG">
	<g>
		<g>
			<path class="st0" d="M269.8871765,387.0006409c-1.9299927,0.789978-3.6499634,1.1300049-5.1799927,1.1300049
				c-8.0899658,0-10.8699951-9.3300171-10.8699951-9.3300171c-2.4699707-9.5300293-4.9799805-22.6900024-4.9799805-22.6900024
				s-13.8300171-23.5599976-27.6300049-49.9500122c-10.8800049-20.789978-21.75-43.3200073-25.8300171-57.4599609
				c-9.2699585-32.0800171,38.4899902-63.4500122,57.7399902,4.9899902
				c0.1500244,0.5199585,1.8900146,6.8900146,4.4200439,16.1400146
				c7.5299683,27.4199829,21.9599609,80.0999756,21.9599609,80.0999756l2.6100464,16.6300049
				C282.7571716,376.5406189,282.0071716,382.0106506,269.8871765,387.0006409z"/>
			<path class="st3" d="M257.5572205,269.830658l-36.3300171,36.3299561
				c-10.8800049-20.789978-21.75-43.3200073-25.8300171-57.4599609
				c-9.2699585-32.0800171,38.4899902-63.4500122,57.7399902,4.9899902
				C253.2872009,254.2106018,255.0271912,260.580658,257.5572205,269.830658z"/>
		</g>
		<path class="st0" d="M311.2171936,469.9306335l-29.0899658-103.3699951
			c-2.598999-9.2355347-9.0306396-18.0581055-21.1494141-13.0680542
			c-12.1188354,4.9901123-7.1411743,25.3068237-7.1411743,25.3068237l0,0
			c0.5723877,2.2045288,1.1430664,4.2144775,1.680542,5.821228c2.460022,7.3999634,32.6400146,72.7000122,40.7700195,90.2399902
			c1.2700195,2.75,2,4.3300171,2,4.3300171l4.039978,8.3200073l12.8300171-3.5599976L311.2171936,469.9306335z"/>
		<path class="st2" d="M315.157196,483.9506531l-12.8300171,3.5599976l-4.039978-8.3200073c0,0-0.7299805-1.5800171-2-4.3300171
			c3.4799805-0.8200073,9.0499878-2.3699951,14.9299927-4.9299927L315.157196,483.9506531z"/>
		<g>
			<g>
				<g>
					<path class="st3" d="M298.5160522,482.0539856c0,0,8.5607605,0.4683533,15.6894531-3.8088989
						c0,0,15.5147705,14.1739502,24.2432251,17.3380127c8.7284851,3.1640625,17.0205078,5.4552917,17.0205078,19.2026062H292.733429
						C292.733429,514.7857056,291.5332642,493.1172485,298.5160522,482.0539856z"/>
					<path class="st5" d="M338.6807556,501.1757812c0,0-11.7623596-4.6603699-23.5247498-14.8503723"/>
					<path class="st2" d="M356.8297729,514.7906494h-65.2999878v-8.52005H356.15979
						C356.7597656,508.830658,356.8297729,511.7606506,356.8297729,514.7906494z"/>
				</g>
			</g>
		</g>
	</g>
</g>
<g id="WOMAN_RIGHT_LEG">
	<g>
		<g>
			<g>
				<path class="st0" d="M158.4571838,367.410614c-7.8299561,8.0700073-15.9099731,3.3300171-21.1099854-3.0499878
					l-58.2199707-71.4299927l-7.8900146-9.6900024l8.8900146-7.1799927l6.0199585,5.1699829
					c0,0,1.1099854,0.9899902,3.0499878,2.7200317c8.5900269,7.6399536,33.3400269,29.7099609,49.2200317,44.1999512
					c7.039978,6.4300537,12.3300171,11.3600464,13.7000122,12.9000244c0.4500122,0.5,0.9400024,1.0800171,1.4599609,1.7000122
					c0.5900269,0.7099609,1.210022,1.4899902,1.8500366,2.3099976
					C155.4272156,345.0606384,166.2872009,359.3506165,158.4571838,367.410614z"/>
				<path class="st3" d="M153.577179,342.7506409c-7.2999878,5.7799683-16.0999756,11.8900146-16.0999756,11.8900146
					l0.9400024-26.4900513c7.039978,6.4300537,12.3300171,11.3600464,13.7000122,12.9000244
					C152.5672302,341.5506287,153.0572205,342.1306458,153.577179,342.7506409z"/>
				<path class="st2" d="M71.2409058,283.2446899l8.8820114-7.1854858l6.0223846,5.1682739
					c0,0,1.1143799,0.9942017,3.0535507,2.7247925c-2.4588776,1.8343506-6.313385,4.9573669-10.0668106,8.9812317
					L71.2409058,283.2446899z"/>
			</g>
			<g>
				<g>
					<g>
						<path class="st3" d="M84.986908,279.0519714c0,0-6.898056,2.5562134-11.0476151,8.3583069
							c0,0-17.0540504-5.8553467-25.0051079-5.3636169s-15.2604065,1.5213928-19.957262-9.2989197l49.3783951-21.4340668
							C78.3553162,251.3136749,86.7031097,267.9585571,84.986908,279.0519714z"/>
						<path class="st5" d="M46.8407898,277.723999c0,0,10.850235-0.3505554,23.5896912,3.6511536"/>
						<path class="st2" d="M27.9044018,273.2087097l51.3966217-22.3101501l2.9109192,6.7059937l-50.8692932,22.0812073
							C29.99576,277.8757629,28.9396076,275.5935364,27.9044018,273.2087097z"/>
					</g>
				</g>
			</g>
		</g>
		<path class="st0" d="M221.7472229,265.6306458c-0.3200073,0.5599976-5.210022,8.8599854-11.8300171,20.0899658h-0.0100098
			c-14.9799805,25.4200439-38.8399658,65.8699951-38.8399658,65.8699951l-10.1200562,13.460022
			c-6.7199707,7.4000244-12.0299683,9.4299927-21.5099487,0.3800049c-3.1800537-3.0200195-4.4900513-6.6799927-4.8699951-10.1400146
			c-0.6400146-5.8300171,1.5199585-11.6300049,5.5499878-15.9099731l5.1599731-5.4800415c0,0,5.3500366-19.3699951,12.75-42.7199707
			c8.0300293-25.3300171,18.4700317-55.3699951,27.0900269-70.4500122
			C201.6772156,191.7306213,257.4571838,204.1506042,221.7472229,265.6306458z"/>
		<path class="st3" d="M221.7472229,265.6306458c-0.3200073,0.5599976-5.210022,8.8599854-11.8300171,20.0899658h-0.0100098
			l-51.8800049,5.460022c8.0300293-25.3300171,18.4700317-55.3699951,27.0900269-70.4500122
			C201.6772156,191.7306213,257.4571838,204.1506042,221.7472229,265.6306458z"/>
	</g>
</g>
<g id="WOMAN_SKIRT">
	<g>
		<polygon class="st3" points="203.7104645,286.2450867 226.284729,284.3441162 222.7203674,229.4530182 211.5520477,244.1856995 		
			"/>
		<path class="st6" d="M195.0372009,189.8886719l-6.5346527,4.3960266c0,0-14.7326813,8.3168335-24.1188202,29.8217926
			c0,0-11.4059296,14.6138611-31.009903,17.8217773c0,0,12.8316956,42.4158478,73.0693207,48.1188202
			c0,0,5.3465271-32.4356384,13.1881104-51.3267365c0,0,0.3564301,31.009903,4.2772369,49.5445404
			c0,0,19.6039581-0.3564148,38.4950409-12.4752502l-2.8514709-6.0593872c0,0,5.7029419-1.782196,10.3366089-6.0594177
			c0,0-16.7524567-26.0197906-22.098999-54.8910828C242.4431458,179.9084625,195.0372009,189.8886719,195.0372009,189.8886719z"/>
		<path class="st7" d="M244.2253113,224.1064911c0,0,6.315094,24.2723541,12.6030884,41.1856842"/>
		<path class="st7" d="M153.6906586,258.0866699c0,0,13.1881256-7.6039429,19.9604034-14.3762207
			c0,0,4.6277008-18.822937,14.1010742-29.2277222"/>
	</g>
</g>
<g id="WOMAN_BODY">
	<g>
		<g>
			<polygon class="st0" points="246.4872131,137.4906311 213.2171936,136.7806091 206.327179,118.0106506 218.9172058,117.7705994 
				219.4872131,98.0906067 219.6272278,93.2906189 230.5572205,99.0006409 231.8371887,110.9806213 232.6338654,118.3731842 
				243.4521179,118.5038605 			"/>
			<path class="st3" d="M231.8371887,110.9806213c-8.2199707-1.1099854-11.25-7.6300049-12.3499756-12.8900146l0.1400146-4.7999878
				l10.9299927,5.710022L231.8371887,110.9806213z"/>
		</g>
		<path class="st2" d="M192.5421448,116.5817337l17.8217926-1.6633682c0,0,5.2277222,7.6039658,6.8910828,17.8217773
			l24.4752502,0.4752502c0,0-1.6633759-10.2178192-4.2772369-14.4950485h-2.376236l2.6138611-2.376236l10.6930695,1.6633682
			l4.990097,14.732666c0,0,7.8415985,15.6831818,7.6039581,24c-0.2376099,8.3168335-11.1683044,24.2376251-11.1683044,24.2376251
			s-3.8019867,16.3960419-0.7128754,28.2772369c0,0-6.8910828,6.6534576-30.8910828,2.8514862
			c-24-3.8019867-29.7029724-17.8217926-29.7029724-17.8217926l9.9801941-20.6732635c0,0-7.8415833-24-10.2178192-36.8316803
			S192.5421448,116.5817337,192.5421448,116.5817337z"/>
	</g>
</g>
<g id="WOMAN_HEAD">
	<g>
		<g>
			<path class="st3" d="M218.9870605,63.377655c0,0-1.8016357-10.6699181-8.7471771-15.0167465
				c-6.9455261-4.3468246-14.4949799,1.8304214-18.5521393,10.9596519
				c-4.0571747,9.1292305,0.382843,19.4272957,13.7657776,13.8314095
				C215.9673004,68.7557678,218.9870605,63.377655,218.9870605,63.377655z"/>
			<path class="st3" d="M216.9615479,62.9010696c0,0-14.2156067,2.6480179-16.4793701,14.0862579
				c-2.2637787,11.4382324,14.1869507,26.2330856,26.5701294,23.3529358s12.7467499-12.6646805,12.7467499-12.6646805
				s9.3880615,2.1425781,12.4098816-6.5963364c3.0218048-8.7389145-0.9902191-11.768959-5.9677277-12.3872757
				c0,0,5.2773895-10.3679695-4.509201-14.6387787C231.9454041,49.7823868,222.5409241,52.7220955,216.9615479,62.9010696z"/>
			<path class="st14" d="M216.9615479,62.9010696c-0.0051117,0.0009499-10.4505005,1.9483719-14.8571014,9.7103424"/>
		</g>
		<g>
			<path class="st0" d="M241.1384125,76.8454208c0,0,2.2823334,9.190834-0.7024994,19.2136688
				c-2.9848175,10.0228424-11.2204285,8.527359-18.0961304,2.5679245
				c-6.8756866-5.9594345-8.0939331-18.9835587-8.0939331-18.9835587s-0.4108887-11.0355835,7.7137756-13.3918762
				C230.0842896,63.8952904,238.6403656,68.0387344,241.1384125,76.8454208z"/>
			<path class="st3" d="M221.9308777,69.6945496c0,0,7.8761444,11.8264542,22.8128052,10.5938263
				c0,0-3.7676392-21.3932457-22.1000061-17.5393448s-14.9961548,18.747406-7.2556152,23.4434586
				C215.3880615,86.1924896,221.7521973,82.2646866,221.9308777,69.6945496z"/>
			<g>
				<g>
					<path class="st0" d="M219.4493866,92.1457748l-2.0734711-6.8516998c0,0-2.8979187-5.0603561-7.5707245-3.9140549
						C205.1324005,82.526329,205.6980591,94.7629776,219.4493866,92.1457748z"/>
					<path class="st15" d="M210.2225647,84.195755c0,0,4.6252136,1.0034943,7.3471527,5.0678711"/>
					<path class="st15" d="M212.3307953,89.3098679c0,0,0.1687927-1.8494492,1.1387329-3.7845383"/>
				</g>
				<path class="st16" d="M215.8037262,90.5975494c1.7698975,0.5752029,2.4155579,3.4695969,1.4421234,6.4648056
					c-0.9734192,2.9952087-3.1973267,4.9570084-4.9672241,4.3817978s-2.4155579-3.4696045-1.4421234-6.4648056
					c0.3756104-1.1557465,0.9374084-2.1576233,1.5874634-2.9192505"/>
			</g>
		</g>
		<g>
			<path class="st3" d="M222.6229553,80.3522568c0,0,2.052597-4.1787949,5.2232819-2.5952759
				c0,0,0.0830841-0.9481659,0.9115143-0.971489c0.8284149-0.0233231,0.9184113,2.5683746,0.9184113,2.5683746
				S225.8733826,79.0512695,222.6229553,80.3522568z"/>
			<path class="st3" d="M240.4303741,82.2896194c0,0-0.2671814-4.2494202-2.7176056-3.0638809
				c0,0-0.065033-0.7843857-0.5977173-0.8714218c-0.9213104-0.1505356-1.1027832,2.2907867-1.1027832,2.2907867
				S238.6596222,80.68573,240.4303741,82.2896194z"/>
			<g>
				
					<ellipse transform="matrix(0.0285071 -0.9995936 0.9995936 0.0285071 135.4150085 309.857605)" class="st3" cx="227.1176758" cy="85.2628326" rx="2.1611183" ry="1.7479633"/>
				<circle class="st8" cx="227.5247192" cy="84.5074081" r="0.4647993"/>
			</g>
			<g>
				
					<ellipse transform="matrix(0.0285071 -0.9995936 0.9995936 0.0285071 145.1210785 320.431488)" class="st3" cx="237.4105835" cy="85.5563736" rx="2.1611183" ry="1.7479633"/>
				<circle class="st8" cx="237.817627" cy="84.8009491" r="0.4647993"/>
			</g>
			<path class="st15" d="M232.874588,84.9768219l-0.0884705,4.2260818c0,0,3.0232239,0.1103668,2.2985229,1.813858
				c-0.7118835,1.6733475-3.0513763,1.0178528-3.0513763,1.0178528"/>
			<path class="st15" d="M233.18367,96.6722336c0,0-3.9589691,1.2699966-7.604248-2.7243195"/>
		</g>
	</g>
</g>
<g id="WOMAN_RIGHT_ARM">
	<g>
		<path class="st0" d="M192.7797699,118.9579697c-12.8202362-0.5916977-16.1254883,10.8595963-8.8211823,20.6732712
			c7.3042908,9.8136597,43.2923584,43.009903,49.2250824,43.7227631
			c5.9327393,0.7128754,40.3881683-35.1683044,40.3881683-35.1683044s7.0099182-4.0990143,7.901001-6.9505005
			s0.6237793-5.5247498,0.6237793-5.5247498s2.316803-0.0891113,3.0296936-1.3366394
			c0.7128601-1.2475281,1.2081909-4.4554443,0.6932068-6.0594025s-1.8516235-2.2277222-1.8516235-2.2277222
			s-0.534668-2.3168335-1.4257507-3.3861389s-2.6732483-1.3366318-2.6732483-1.3366318s-0.7128906-1.6114655-2.1386414-2.4096909
			c-1.4257202-0.798233-4.0098877,0-4.0098877,0s-1.6930847-1.4219971-2.9405823-1.4219971
			c-1.2475281,0-6.8613892,4.188118-7.1287231,6.5049515s2.8514709,16.930687,2.8514709,16.930687l-32.6138458,18.623764
			l-30.891098-28.2772217C202.9975891,131.3144073,200.5025482,119.3144073,192.7797699,118.9579697z"/>
		<path class="st1" d="M261.75177,160.0960999c6.6652832-6.5422821,11.8200684-11.9104004,11.8200684-11.9104004
			s7.0099182-4.0990143,7.901001-6.9505005c0.1095581-0.3506012,0.2016296-0.6985168,0.2788086-1.039093"/>
		<line class="st1" x1="270.3045349" y1="123.1163864" x2="273.0372009" y2="120.2649002"/>
		<line class="st1" x1="276.0668945" y1="125.3738098" x2="278.9777832" y2="122.5223312"/>
		<line class="st1" x1="279.9352112" y1="128.1658936" x2="282.7203674" y2="126.5025253"/>
		<path class="st1" d="M265.1362,124.0835724c0,0,0.9134521-0.967186,2.2567749-0.967186
			c1.3432922,0,2.3104858,1.8806305,2.3104858,1.8806305s2.2496033-0.7522507,3.1934814-0.4835892
			c0.9439087,0.2686615,1.3200378,2.5254211,1.3200378,2.5254211s1.5044861-0.2686615,2.4179382,0
			s0.8597412,2.7940826,0.8597412,2.7940826s1.7604675-0.1675415,2.1365967,0.5309753
			c0.3761292,0.6985321,0.2970276,2.3168335,0.2970276,2.3168335"/>
		<g>
			<path class="st6" d="M273.3971863,150.4506531l-5.5799561,5.1499634
				c-0.0100098,0.0100098-0.0100098,0.0100098-0.0100098,0.0100098l-1.3300171-0.2000122
				c0,0,0.6799927-4.1599731-1.8800049-7.5100098c-2.5499878-3.3399658-6.4400024-2.1699829-6.4400024-2.1699829l0.5-2.2399902
				l6.539978-3.0300293c0,0,3.3300171-1.4199829,6.4700317,2.3200073
				C274.8172302,146.5205994,273.3971863,150.4506531,273.3971863,150.4506531z"/>
			<path class="st3" d="M267.8172302,155.6006165c-0.0100098,0.0100098-0.0100098,0.0100098-0.0100098,0.0100098
				l-1.3300171-0.2000122c0,0,0.6799927-4.1599731-1.8800049-7.5100098
				c-2.5499878-3.3399658-6.4400024-2.1699829-6.4400024-2.1699829l0.5-2.2399902c0,0,5.710022-0.5300293,8.2600098,3.8599854
				C269.3871765,151.5906067,267.9172058,155.3406067,267.8172302,155.6006165z"/>
		</g>
	</g>
</g>
<g id="ORNAMENT_9">
	<g>
		<line class="st17" x1="71.2409058" y1="345.7763062" x2="71.2409058" y2="351.5561829"/>
		<line class="st17" x1="71.2409058" y1="357.725708" x2="71.2409058" y2="363.5055847"/>
		<line class="st17" x1="80.1055527" y1="354.6409302" x2="74.3256683" y2="354.6409302"/>
		<line class="st17" x1="68.1561356" y1="354.6409302" x2="62.376255" y2="354.6409302"/>
	</g>
</g>
<g id="ORNAMENT_8">
	<g>
		<line class="st17" x1="474.2345581" y1="305.2034302" x2="474.2345581" y2="310.9833069"/>
		<line class="st17" x1="474.2345581" y1="317.152832" x2="474.2345581" y2="322.9327393"/>
		<line class="st17" x1="483.0992126" y1="314.0680847" x2="477.3193359" y2="314.0680847"/>
		<line class="st17" x1="471.1497803" y1="314.0680847" x2="465.3699036" y2="314.0680847"/>
	</g>
</g>
<g id="ORNAMENT_7">
	<g>
		<line class="st17" x1="114.283638" y1="227.3650513" x2="114.283638" y2="232.1189575"/>
		<line class="st17" x1="114.283638" y1="237.1933441" x2="114.283638" y2="241.9472351"/>
		<line class="st17" x1="121.5747299" y1="234.6561432" x2="116.8208313" y2="234.6561432"/>
		<line class="st17" x1="111.7464447" y1="234.6561432" x2="106.9925537" y2="234.6561432"/>
	</g>
</g>
<g id="ORNAMENT_6">
	<circle class="st17" cx="125.9609528" cy="110.8033905" r="4.5803947"/>
</g>
<g id="ORNAMENT_5">
	<circle class="st17" cx="512.7758789" cy="190.5121155" r="4.5803947"/>
</g>
<g id="ORNAMENT_4">
	<circle class="st18" cx="49.9558792" cy="387.6814575" r="5.2019591"/>
</g>
<g id="ORNAMENT_3">
	<circle class="st18" cx="450.0536194" cy="93.2906189" r="7.8395782"/>
</g>
<g id="ORNAMENT_2">
	<circle class="st18" cx="65.0410309" cy="154.9951019" r="7.8395782"/>
</g>
<g id="ORNAMENT_1">
	<circle class="st18" cx="448.9909668" cy="234.0906067" r="5.5169287"/>
</g>
</svg>
